<svg xmlns="http://www.w3.org/2000/svg" width="83.276" height="93.031" viewBox="0 0 83.276 93.031"><g transform="translate(-8.362 -1.845)"><path d="M91.119,25.023,72.945,26.585a.478.478,0,0,0-.287.823l4.585,4.324-1.018,1.039-.679.693L72.1,37.043q-1.992,2.1-3.969,4.21-1.416,1.517-2.816,3.053-3.351,3.668-6.617,7.42c-1.083,1.255-2.163,2.515-3.226,3.79-.283.339-.562.681-.842,1.022L53.492,55.9,35.751,45.924l-2.832-1.591-2.029,2.21-2.539,2.766L8.362,71.083l4.2,4.094L34.188,54.306h0l12.661,8.236,6.474,4.212,2.348,1.527.538.348,3.055-2.676q1.876-1.646,3.694-3.345c1.217-1.131,2.416-2.276,3.61-3.425q3.578-3.456,7.051-7.008c2.326-2.36,4.608-4.761,6.884-7.167l3.387-3.636.458-.5,1.2-1.307,4.377,4.128a.478.478,0,0,0,.8-.323l.907-17.847a.478.478,0,0,0-.518-.5Z" transform="translate(0 -5.832)" fill="#20926b"/><path d="M14.093,113.443a1.565,1.565,0,0,0,1.562,1.562h10.83a1.565,1.565,0,0,0,1.562-1.562v-31.6L14.093,95.308Z" transform="translate(-1.442 -20.129)" fill="#20926b"/><path d="M39.952,74v36.81a1.565,1.565,0,0,0,1.562,1.562h10.83a1.565,1.565,0,0,0,1.562-1.562v-32.1L42.656,71.394Z" transform="translate(-7.949 -17.5)" fill="#20926b"/><path d="M71.052,87.816l-5.241-3.4V113a1.565,1.565,0,0,0,1.562,1.562H78.2A1.565,1.565,0,0,0,79.766,113V80.1c-1.04.964-2.129,1.944-3.235,2.915Z" transform="translate(-14.456 -19.691)" fill="#20926b"/><path d="M97.617,62.488c-2.145,2.184-4.1,4.139-5.948,5.937v38.042a1.565,1.565,0,0,0,1.562,1.562h10.83a1.565,1.565,0,0,0,1.562-1.562V54.118l-1.062,1.14C102.363,57.582,100.016,60.055,97.617,62.488Z" transform="translate(-20.962 -13.153)" fill="#20926b"/><path d="M67.537,30.115a6.763,6.763,0,0,1-3.75.741,16.542,16.542,0,0,1-4.6-.628,23.539,23.539,0,0,1-3.75-1.394L53.5,34a30.57,30.57,0,0,0,3.033,1.236,20.931,20.931,0,0,0,5.32,1.011V41.59h5.66v-5.48a11.9,11.9,0,0,0,3.7-1.166,8.207,8.207,0,0,0,2.447-1.931,6.936,6.936,0,0,0,1.348-2.444,9.083,9.083,0,0,0,.4-2.672,8.031,8.031,0,0,0-.7-3.455,7.927,7.927,0,0,0-1.931-2.581A13.665,13.665,0,0,0,69.875,19.9a33.013,33.013,0,0,0-3.662-1.576q-1.3-.451-2.223-.832a9.87,9.87,0,0,1-1.548-.786,2.711,2.711,0,0,1-.92-.92,2.449,2.449,0,0,1-.295-1.236,2.262,2.262,0,0,1,.944-1.886,5.183,5.183,0,0,1,3.1-.72,18.221,18.221,0,0,1,4.108.449,20.78,20.78,0,0,1,3.434,1.078l1.394-5.389a18.018,18.018,0,0,0-2.672-.9,25.593,25.593,0,0,0-4.02-.674V1.845h-5.66V6.7a11.275,11.275,0,0,0-3.413,1.145,7.386,7.386,0,0,0-3.659,4.4,9.508,9.508,0,0,0-.428,2.851,6.893,6.893,0,0,0,2.538,5.614,11.792,11.792,0,0,0,2.56,1.594q1.416.651,2.9,1.19c1.017.361,1.916.7,2.7,1.011a11.625,11.625,0,0,1,1.931.966,4,4,0,0,1,1.166,1.1,2.569,2.569,0,0,1,.4,1.46,2.44,2.44,0,0,1-1.011,2.089Z" transform="translate(-11.359)" fill="#20926b"/></g></svg>