<svg xmlns="http://www.w3.org/2000/svg" width="83.89" height="53.371" viewBox="0 0 83.89 53.371"><path d="M112.771,272.709a2.623,2.623,0,0,1-1.268-.323l-12.6-6.993-12.6,6.993a2.622,2.622,0,0,1-3.855-2.719l2.413-14.931L74.6,244.185a2.623,2.623,0,0,1,1.477-4.423L90.192,237.6,96.529,224.1a2.622,2.622,0,0,1,4.747,0L107.6,237.6l14.118,2.159a2.622,2.622,0,0,1,1.477,4.423l-10.263,10.551,2.43,14.931a2.622,2.622,0,0,1-2.623,3.042ZM98.907,259.763a2.623,2.623,0,0,1,1.268.332l9.17,5.079-1.748-10.9a2.622,2.622,0,0,1,.708-2.255l7.658-7.868-10.49-1.6a2.622,2.622,0,0,1-1.976-1.477l-4.589-9.686L94.344,241.1a2.623,2.623,0,0,1-1.976,1.477l-10.49,1.6,7.658,7.868a2.623,2.623,0,0,1,.708,2.255L88.5,265.2l9.135-5.053a2.623,2.623,0,0,1,1.276-.385Zm41.777-5.577a2.491,2.491,0,0,0-1.984-1.67l-9.021-1.381-2.885-6.119-3.462,4.406,2.369,5.035a2.491,2.491,0,0,0,1.879,1.407l5.542.874-4.091,4.2a2.491,2.491,0,0,0-.673,2.142l.935,5.761-4.747-2.623a2.5,2.5,0,0,0-2.413,0l-2.623,1.442.874,5.245,2.946-1.7,8.034,4.441a2.491,2.491,0,0,0,3.663-2.623l-1.565-9.616,6.6-6.766a2.491,2.491,0,0,0,.621-2.456Zm-83.658,0a2.491,2.491,0,0,1,1.984-1.67l9.021-1.381,2.885-6.119,3.462,4.406-2.369,5.035a2.491,2.491,0,0,1-1.879,1.407l-5.542.874,4.091,4.2a2.491,2.491,0,0,1,.673,2.142l-.935,5.761,4.747-2.623a2.5,2.5,0,0,1,2.413,0l2.623,1.442-.874,5.245-2.946-1.7-8.034,4.441a2.491,2.491,0,0,1-3.663-2.623l1.565-9.616L57.6,256.721a2.491,2.491,0,0,1-.577-2.535Z" transform="translate(-56.895 -222.59)" fill="#38435b"/></svg>