<svg xmlns="http://www.w3.org/2000/svg" width="17.2" height="18.978" viewBox="0 0 17.2 18.978"><g transform="translate(0.6 0.6)"><path d="M0,.473H15.844" transform="translate(0.082 6.109)" fill="none" stroke="#b1b1b1" stroke-linecap="round" stroke-linejoin="round" stroke-miterlimit="10" stroke-width="1.2"/><path d="M.459.473H.467" transform="translate(11.49 9.58)" fill="none" stroke="#b1b1b1" stroke-linecap="round" stroke-linejoin="round" stroke-miterlimit="10" stroke-width="1.2"/><path d="M.459.473H.467" transform="translate(7.546 9.58)" fill="none" stroke="#b1b1b1" stroke-linecap="round" stroke-linejoin="round" stroke-miterlimit="10" stroke-width="1.2"/><path d="M.459.473H.467" transform="translate(3.593 9.58)" fill="none" stroke="#b1b1b1" stroke-linecap="round" stroke-linejoin="round" stroke-miterlimit="10" stroke-width="1.2"/><path d="M.459.473H.467" transform="translate(11.49 13.035)" fill="none" stroke="#b1b1b1" stroke-linecap="round" stroke-linejoin="round" stroke-miterlimit="10" stroke-width="1.2"/><path d="M.459.473H.467" transform="translate(7.546 13.035)" fill="none" stroke="#b1b1b1" stroke-linecap="round" stroke-linejoin="round" stroke-miterlimit="10" stroke-width="1.2"/><path d="M.459.473H.467" transform="translate(3.593 13.035)" fill="none" stroke="#b1b1b1" stroke-linecap="round" stroke-linejoin="round" stroke-miterlimit="10" stroke-width="1.2"/><path d="M.463,0V2.925" transform="translate(11.131 0)" fill="none" stroke="#b1b1b1" stroke-linecap="round" stroke-linejoin="round" stroke-miterlimit="10" stroke-width="1.2"/><path d="M.463,0V2.925" transform="translate(3.951 0)" fill="none" stroke="#b1b1b1" stroke-linecap="round" stroke-linejoin="round" stroke-miterlimit="10" stroke-width="1.2"/><path d="M11.767,0H4.241C1.63,0,0,1.454,0,4.127v8.044c0,2.715,1.63,4.2,4.241,4.2h7.518c2.619,0,4.241-1.463,4.241-4.136V4.127C16.008,1.454,14.386,0,11.767,0Z" transform="translate(0 1.404)" fill="none" stroke="#b1b1b1" stroke-linecap="round" stroke-linejoin="round" stroke-miterlimit="10" stroke-width="1.2"/></g></svg>