<svg xmlns="http://www.w3.org/2000/svg" width="30.3" height="30.3" viewBox="0 0 30.3 30.3"><g transform="translate(1.15 1.15)"><path d="M12.72,1.633A1.636,1.636,0,1,1,14.356,3.27,1.637,1.637,0,0,1,12.72,1.633Zm-6.359,0A1.635,1.635,0,1,1,8,3.27,1.636,1.636,0,0,1,6.36,1.633ZM0,1.633A1.636,1.636,0,1,1,1.635,3.27,1.636,1.636,0,0,1,0,1.633Z" transform="translate(6.337 12.678)" fill="#38435b" stroke="#38435b" stroke-width="0.7"/><path d="M14.028,0A14.009,14.009,0,0,0,0,14.021a14.818,14.818,0,0,0,1.89,7,1.471,1.471,0,0,1,.1,1.263L1.05,25.42A.874.874,0,0,0,2.2,26.512l2.828-.84a2.375,2.375,0,0,1,2.086.5A14,14,0,1,0,14.028,0Z" transform="translate(0 0)" fill="none" stroke="#38435b" stroke-linecap="round" stroke-linejoin="round" stroke-miterlimit="10" stroke-width="2.3"/></g></svg>