<svg xmlns="http://www.w3.org/2000/svg" width="66.248" height="66.249" viewBox="0 0 66.248 66.249"><path d="M1.849,45.834H1.109v-.155a1.845,1.845,0,0,1-1-2.328c3.58-9.84,7.294-14.625,11.356-14.625a5.418,5.418,0,0,1,3.882,1.755,5.191,5.191,0,0,1,1.637,4.969c-.809,3.656-5.554,7.016-14.506,10.273a1.891,1.891,0,0,1-.632.111Zm9.62-15.63C8.2,30.2,4.751,34.926,1.5,43.86a.368.368,0,0,0,.086.387.375.375,0,0,0,.262.106h.039a.493.493,0,0,0,.094-.021c10.359-3.768,13.093-7.083,13.562-9.2a3.772,3.772,0,0,0-1.238-3.6A4,4,0,0,0,11.469,30.2ZM19.59,43.613a1.849,1.849,0,0,1-1.309-3.155,14.428,14.428,0,0,0,1.953-2.718A14.915,14.915,0,0,0,22.107,32,20.142,20.142,0,0,1,17.45,28.38a20.19,20.19,0,0,1-3.619-4.657A14.926,14.926,0,0,0,8.091,25.6,14.33,14.33,0,0,0,5.37,27.552a1.885,1.885,0,0,1-2.388.186,1.843,1.843,0,0,1-.569-2.321,42.965,42.965,0,0,1,4.561-6.987,25.74,25.74,0,0,1,5.084-4.923,12.411,12.411,0,0,1,5.854-2.366c.361-.472.739-.929,1.123-1.365a26.926,26.926,0,0,1,9.4-6.809A37.483,37.483,0,0,1,42.614.02L42.6,0h3.228V1.848A38.347,38.347,0,0,1,42.866,17.39,26.939,26.939,0,0,1,36.057,26.8c-.439.387-.9.764-1.366,1.123a12.456,12.456,0,0,1-2.366,5.853A25.7,25.7,0,0,1,27.4,38.856a43.1,43.1,0,0,1-6.981,4.558,1.815,1.815,0,0,1-.83.2Zm-4.8-21.441.2.5A17.352,17.352,0,0,0,18.5,27.336a17.3,17.3,0,0,0,4.66,3.513l.5.2-.033.539a16.245,16.245,0,0,1-2.1,6.884A15.427,15.427,0,0,1,19.328,41.5a.369.369,0,0,0,.42.594,41.459,41.459,0,0,0,6.724-4.391,24.213,24.213,0,0,0,4.642-4.785,10.785,10.785,0,0,0,2.13-5.443l.023-.339.273-.2c.53-.394,1.047-.815,1.539-1.248a25.463,25.463,0,0,0,6.434-8.894A36.89,36.89,0,0,0,44.35,1.849V1.48h-.368A36.9,36.9,0,0,0,29.037,4.319a25.449,25.449,0,0,0-8.894,6.435c-.43.488-.85,1.005-1.249,1.539l-.2.273-.339.023a10.767,10.767,0,0,0-5.442,2.128A24.265,24.265,0,0,0,8.125,19.36a41.356,41.356,0,0,0-4.386,6.713.371.371,0,0,0,.11.47.322.322,0,0,0,.479-.038,15.438,15.438,0,0,1,3.035-2.193,16.267,16.267,0,0,1,6.883-2.1l.54-.035Zm15.891-.733a6.283,6.283,0,1,1,6.284-6.284A6.29,6.29,0,0,1,30.677,21.439Zm0-11.087a4.8,4.8,0,1,0,4.805,4.8A4.81,4.81,0,0,0,30.677,10.351Z" transform="translate(0.726 33.113) rotate(-45)" fill="#38435b" stroke="#38435b" stroke-width="1"/></svg>