<svg xmlns="http://www.w3.org/2000/svg" width="85.969" height="89.871" viewBox="0 0 85.969 89.871"><g transform="translate(-2.512 -1101.885)"><path d="M25.01,1102.964a21.159,21.159,0,0,0-12.655,38.206H8.935v10.7H2.512v14.973H8.935v6.407H2.512v14.973H41.1V1177.55h6.432v-14.966H41.1v-6.448h6.432V1141.17H37.682a21.151,21.151,0,0,0-12.671-38.207Zm0,4.263a16.972,16.972,0,1,1,.083,33.944h-.167a16.972,16.972,0,0,1,.083-33.944Zm-11.8,38.24H43.262v6.407H13.206Zm-6.423,10.669H36.831v6.448H6.783Zm6.423,10.711H43.262v6.407H13.206Zm-6.423,10.7H36.831v6.415H6.783Z" transform="translate(0 3.528)" fill="#20926b"/><path d="M10.787,1105.2v2.9H6.207V1119H15.4v2.369H6.207v4.263h4.58v2.9h4.3v-2.9h4.58v-10.895H10.478v-2.369h9.193V1108.1h-4.58v-2.9Z" transform="translate(12.088 10.848)" fill="#20926b"/><path d="M32.439,1101.885l-18.428,22.645H24.745l.222,47.974H39.943v-47.974H50.867Zm0,6.79,9.467,11.591H35.668v47.974H29.209l-.222-47.974H23Z" transform="translate(37.615)" fill="#20926b"/><path d="M16.576,1119.425v4.264H31.521v-4.264H16.576Z" transform="translate(46.005 57.376)" fill="#20926b"/><path d="M16.576,1121.428v4.264H31.521v-4.264H16.576Z" transform="translate(46.005 63.927)" fill="#20926b"/></g></svg>