<svg xmlns="http://www.w3.org/2000/svg" width="129.413" height="129.38" viewBox="0 0 129.413 129.38"><g transform="translate(-622 -3052)"><rect width="129.413" height="129.38" rx="15" transform="translate(622 3052)" fill="#f4fbf8"/><g transform="translate(652 3086)"><path d="M308.681,281.34a1.34,1.34,0,1,1-1.34-1.34A1.34,1.34,0,0,1,308.681,281.34Zm0,0" transform="translate(-264.986 -242.471)" fill="#20926b"/><path d="M248.681,281.34a1.34,1.34,0,1,1-1.34-1.34A1.34,1.34,0,0,1,248.681,281.34Zm0,0" transform="translate(-213.028 -242.471)" fill="#20926b"/><path d="M188.681,281.34a1.34,1.34,0,1,1-1.34-1.34A1.34,1.34,0,0,1,188.681,281.34Zm0,0" transform="translate(-161.07 -242.471)" fill="#20926b"/><path d="M67.284,240H1.34A1.34,1.34,0,0,0,0,241.34v26.807a1.34,1.34,0,0,0,1.34,1.34H67.284a1.34,1.34,0,0,0,1.34-1.34V241.34A1.34,1.34,0,0,0,67.284,240Zm-1.34,10.723H49.056v-8.042H65.944Zm-43.695-8.042H46.375v24.126H22.249Zm-2.681,0v8.042H2.681v-8.042ZM2.681,253.4H19.569v13.4H2.681Zm46.375,13.4V253.4H65.944v13.4Zm0,0" transform="translate(0 -207.832)" fill="#20926b"/><path d="M405.7,360H400.34a1.34,1.34,0,1,0,0,2.681H405.7a1.34,1.34,0,1,0,0-2.681Zm0,0" transform="translate(-345.521 -311.748)" fill="#20926b"/><path d="M400.34,282.681H405.7a1.34,1.34,0,1,0,0-2.681H400.34a1.34,1.34,0,1,0,0,2.681Zm0,0" transform="translate(-345.521 -242.471)" fill="#20926b"/><path d="M400.34,62.681H405.7a1.34,1.34,0,0,0,0-2.681H400.34a1.34,1.34,0,0,0,0,2.681Zm0,0" transform="translate(-345.521 -51.958)" fill="#20926b"/><path d="M59.7,60H54.34a1.34,1.34,0,0,0,0,2.681H59.7A1.34,1.34,0,1,0,59.7,60Zm0,0" transform="translate(-45.896 -51.958)" fill="#20926b"/><path d="M54.34,282.681H59.7a1.34,1.34,0,1,0,0-2.681H54.34a1.34,1.34,0,1,0,0,2.681Zm0,0" transform="translate(-45.896 -242.471)" fill="#20926b"/><path d="M59.7,360H54.34a1.34,1.34,0,0,0,0,2.681H59.7a1.34,1.34,0,1,0,0-2.681Zm0,0" transform="translate(-45.896 -311.748)" fill="#20926b"/><path d="M203.424,320H187.34a1.34,1.34,0,0,0-1.34,1.34v10.723a1.34,1.34,0,0,0,1.34,1.34h16.084a1.34,1.34,0,0,0,1.34-1.34V321.34A1.34,1.34,0,0,0,203.424,320Zm-1.34,10.723h-13.4v-8.042h13.4Zm0,0" transform="translate(-161.07 -277.109)" fill="#20926b"/><path d="M227.34,362.681H232.7a1.34,1.34,0,1,0,0-2.681H227.34a1.34,1.34,0,0,0,0,2.681Zm0,0" transform="translate(-195.709 -311.748)" fill="#20926b"/><path d="M366.909,0H347.34A1.34,1.34,0,0,0,346,1.34v13.4a1.34,1.34,0,0,0,1.34,1.34h19.569a1.34,1.34,0,0,0,1.34-1.34V1.34A1.34,1.34,0,0,0,366.909,0Zm-1.34,13.4H348.681V2.681h16.888Zm0,0" transform="translate(-299.625)" fill="#20926b"/><path d="M1.34,16.084H20.909a1.34,1.34,0,0,0,1.34-1.34V1.34A1.34,1.34,0,0,0,20.909,0H1.34A1.34,1.34,0,0,0,0,1.34v13.4A1.34,1.34,0,0,0,1.34,16.084Zm1.34-13.4H19.569V13.4H2.681Zm0,0" fill="#20926b"/><path d="M146.394,21.838a1.34,1.34,0,0,0,.948,2.288h8.042a1.34,1.34,0,1,0,0-2.681h-4.806l5.361-5.361h9.612l5.361,5.361h-4.806a1.34,1.34,0,0,0,0,2.681h8.042a1.34,1.34,0,0,0,.948-2.288l-7.649-7.65V1.341A1.34,1.34,0,0,0,166.106,0H155.383a1.34,1.34,0,0,0-1.34,1.34V14.188ZM164.766,2.681V13.4h-8.042V2.681Zm0,0" transform="translate(-126.432 0)" fill="#20926b"/><path d="M248.681,161.34a1.34,1.34,0,1,1-1.34-1.34A1.34,1.34,0,0,1,248.681,161.34Zm0,0" transform="translate(-213.028 -138.555)" fill="#20926b"/></g></g></svg>