<svg xmlns="http://www.w3.org/2000/svg" width="129.413" height="129.38" viewBox="0 0 129.413 129.38"><g transform="translate(-851 -3052)"><rect width="129.413" height="129.38" rx="15" transform="translate(851 3052)" fill="#f4fbf8"/><g transform="translate(881 3080)"><g transform="translate(0.013)"><path d="M49.607,13.277a6.756,6.756,0,0,0-6.267-6.3,4.8,4.8,0,0,0-6.383-3.024A8.508,8.508,0,0,0,21.378,7.093a6.83,6.83,0,0,0-.723.01,6.706,6.706,0,0,0-6.22,6.216c-.015.22-.019.441-.013.658a6.659,6.659,0,0,0,6.691,6.5H42.867a6.735,6.735,0,0,0,6.749-6.483A6.983,6.983,0,0,0,49.607,13.277Zm-2.838.6a3.893,3.893,0,0,1-3.9,3.747H21.113a3.824,3.824,0,0,1-3.843-3.732c0-.126,0-.255.008-.383a3.847,3.847,0,0,1,3.569-3.565q.129-.009.26-.009a3.914,3.914,0,0,1,.711.065,1.4,1.4,0,0,0,.147.019,2.053,2.053,0,0,0,1.456-.395,1.818,1.818,0,0,0,.686-1.262c0-.025.005-.049.007-.074s0-.022,0-.032a5.661,5.661,0,0,1,10.95-1.752,1.424,1.424,0,0,0,2.332.509A1.943,1.943,0,0,1,40.7,8.381c0,.015,0,.03,0,.045a1.424,1.424,0,0,0,1.62,1.425,3.992,3.992,0,0,1,.787-.03,3.9,3.9,0,0,1,3.653,3.639h0A4.072,4.072,0,0,1,46.769,13.878Z" transform="translate(-14.419 0)" fill="#20926b"/></g><g transform="translate(24.525 46.693)"><path d="M189.346,328.982a1.436,1.436,0,0,0-.081-.266,1.533,1.533,0,0,0-.131-.246,1.384,1.384,0,0,0-.393-.393,1.52,1.52,0,0,0-.246-.131,1.446,1.446,0,0,0-.266-.081,1.413,1.413,0,0,0-.557,0,1.452,1.452,0,0,0-.266.081,1.53,1.53,0,0,0-.246.131,1.384,1.384,0,0,0-.393.393,1.523,1.523,0,0,0-.131.246,1.437,1.437,0,0,0-.081.266,1.413,1.413,0,0,0-.028.278,1.435,1.435,0,0,0,.417,1.007,1.527,1.527,0,0,0,.216.178,1.5,1.5,0,0,0,.246.131,1.418,1.418,0,0,0,1.089,0,1.4,1.4,0,0,0,.463-.309,1.363,1.363,0,0,0,.177-.217,1.446,1.446,0,0,0,.131-.245,1.474,1.474,0,0,0,.081-.266,1.376,1.376,0,0,0,0-.557Z" transform="translate(-186.525 -327.836)" fill="#20926b"/></g><g transform="translate(4.905 46.693)"><path d="M51.587,328.981a1.434,1.434,0,0,0-.081-.266,1.4,1.4,0,0,0-.309-.463,1.36,1.36,0,0,0-.217-.177,1.446,1.446,0,0,0-.245-.131,1.518,1.518,0,0,0-.266-.081,1.412,1.412,0,0,0-.557,0,1.452,1.452,0,0,0-.266.081,1.41,1.41,0,0,0-.246.131,1.36,1.36,0,0,0-.217.177,1.427,1.427,0,0,0-.176.216,1.52,1.52,0,0,0-.131.246,1.436,1.436,0,0,0-.081.266,1.376,1.376,0,0,0,0,.557,1.473,1.473,0,0,0,.081.266,1.444,1.444,0,0,0,.131.245,1.353,1.353,0,0,0,.176.216,1.455,1.455,0,0,0,.217.178,1.4,1.4,0,0,0,.246.131,1.439,1.439,0,0,0,.266.081,1.441,1.441,0,0,0,.557,0,1.5,1.5,0,0,0,.266-.081,1.427,1.427,0,0,0,.879-1.316A1.411,1.411,0,0,0,51.587,328.981Z" transform="translate(-48.766 -327.835)" fill="#20926b"/></g><g transform="translate(0 0.119)"><path d="M82.688,58.509a1.424,1.424,0,0,0-1.109-1.064,20.611,20.611,0,0,0-5.844-.19V53.33a1.424,1.424,0,0,0-1.424-1.424c-.225,0-.474,0-.739,0a18.3,18.3,0,0,0-2.3-3.056V38.879A15.335,15.335,0,0,0,78,13.047a10.766,10.766,0,1,0-21.34,0,15.335,15.335,0,0,0,6.726,25.831v4.164l-2.611-2.015a1.424,1.424,0,0,0-1.742,0l-4.022,3.113-4.048-3.115a1.424,1.424,0,0,0-1.739,0l-4.035,3.114L41.15,41.027a1.424,1.424,0,0,0-1.741,0l-4.035,3.114-4.035-3.114a1.424,1.424,0,0,0-1.741,0l-4.035,3.114-4.035-3.114a1.424,1.424,0,0,0-1.741,0l-4.905,3.786a1.424,1.424,0,0,0-.554,1.127V72.218a1.424,1.424,0,0,0,1.424,1.424H64.806a1.421,1.421,0,0,0,.515-.1,19.714,19.714,0,0,0,2.889-.3,1.44,1.44,0,0,0,.168-.044,1.432,1.432,0,0,0,.168.044,20.361,20.361,0,0,0,3.642.316c2.665,0,6.191-.517,8.446-2.867h0C84.575,66.587,82.767,58.837,82.688,58.509ZM22.082,70.793V54.527a1.424,1.424,0,0,0-2.849,0V70.793H17.177V46.641l3.481-2.687,3.481,2.687V70.793Zm4.905,0V46.641l3.481-2.687,3.481,2.687V70.793Zm16.773,0H41.7V54.527a1.424,1.424,0,0,0-2.849,0V70.793H36.8V46.641l3.481-2.687,3.481,2.687Zm2.849,0V46.641l3.482-2.688,3.494,2.689V70.793Zm8.233-46.734a12.489,12.489,0,0,1,4.286-9.416,1.425,1.425,0,0,0,.457-1.372,7.917,7.917,0,1,1,15.484,0,1.424,1.424,0,0,0,.457,1.372,12.486,12.486,0,0,1-6.775,21.82V29.287l.021-.019,5.427-5a1.424,1.424,0,0,0-1.93-2.095l-3.517,3.24V21.7l3.833-3.555a1.424,1.424,0,0,0-1.937-2.089l-1.9,1.758v-3.2a1.424,1.424,0,0,0-2.849,0v10.8l-3.518-3.241a1.424,1.424,0,0,0-1.93,2.095l5.427,5,.021.019v7.176A12.5,12.5,0,0,1,54.842,24.059ZM68.38,49.976A17.2,17.2,0,0,1,70.421,52.3a5.281,5.281,0,0,0-2.042,1.044A5.282,5.282,0,0,0,66.338,52.3,17.419,17.419,0,0,1,68.38,49.976ZM66.23,48.089V39.354q.543.038,1.1.039t1.095-.039v7.3a1.423,1.423,0,0,0-.916.3A16.219,16.219,0,0,0,66.23,48.089Zm-9.8-1.45L59.9,43.955l3.48,2.686v4.946q-.1.16-.2.324c-.265,0-.514,0-.739,0a1.424,1.424,0,0,0-1.424,1.426l0,3.924a20.51,20.51,0,0,0-4.593.006ZM66.728,70.592a18.192,18.192,0,0,1-1.819.122q-.051,0-.1,0-.067,0-.133.006c-2.237.009-4.963-.4-6.5-2h0C56.128,66.585,56.3,62.375,56.66,60.1c2.289-.272,6.493-.272,8.551,1.872S67.09,68.313,66.728,70.592Zm1.651-9.1A7.67,7.67,0,0,0,67.266,60a8.54,8.54,0,0,0-3.39-2.1l0-3.1c2.834.172,3.07.917,3.081,2.048a1.425,1.425,0,0,0,2.851,0c.011-1.132.248-1.876,3.082-2.048v3.1a8.543,8.543,0,0,0-3.4,2.1A7.681,7.681,0,0,0,68.378,61.487Zm10.2,7.232c-2.049,2.135-6.262,2.138-8.553,1.869a18.193,18.193,0,0,1-.226-2.778q0-.06,0-.12c.009-2.046.4-4.323,1.745-5.723,2.049-2.135,6.261-2.139,8.553-1.87C80.465,62.375,80.637,66.576,78.58,68.72Z" transform="translate(-14.329 -0.839)" fill="#20926b"/></g></g></g></svg>