<svg xmlns="http://www.w3.org/2000/svg" width="129.413" height="129.38" viewBox="0 0 129.413 129.38"><g transform="translate(-1080 -3052)"><rect width="129.413" height="129.38" rx="15" transform="translate(1080 3052)" fill="#f4fbf8"/><g transform="translate(1110 3095)"><path d="M64.3,14.674H62.964v-6a5.334,5.334,0,0,0-8.141-4.537A5.343,5.343,0,0,0,49.624,0h0a5.343,5.343,0,0,0-5.336,5.336v9.338H24.013V5.336a5.337,5.337,0,0,0-10.536-1.2A5.334,5.334,0,0,0,5.335,8.671v6H4a4.007,4.007,0,0,0-4,4v5.336a4.007,4.007,0,0,0,4,4H5.335v6a5.334,5.334,0,0,0,8.141,4.537,5.343,5.343,0,0,0,5.2,4.134h0a5.343,5.343,0,0,0,5.336-5.336V28.014H44.286v9.338a5.337,5.337,0,0,0,10.536,1.2,5.334,5.334,0,0,0,8.141-4.537v-6H64.3a4.007,4.007,0,0,0,4-4V18.676A4.007,4.007,0,0,0,64.3,14.674ZM5.335,25.346H4a1.336,1.336,0,0,1-1.334-1.334V18.676A1.336,1.336,0,0,1,4,17.342H5.335Zm8,8.671a2.668,2.668,0,1,1-5.336,0V8.671a2.668,2.668,0,0,1,5.336,0Zm8.005,3.335a2.671,2.671,0,0,1-2.668,2.668h0a2.671,2.671,0,0,1-2.668-2.668V5.336a2.669,2.669,0,0,1,5.337,0ZM44.278,20.01H34.95a1.334,1.334,0,0,0,0,2.668h9.329v2.668H24.006v-8H44.278Zm8.013,17.342a2.669,2.669,0,0,1-5.338,0V21.412a.785.785,0,0,1-.008.087v-.31a.785.785,0,0,1,.008.087V5.336a2.671,2.671,0,0,1,2.668-2.668h0a2.671,2.671,0,0,1,2.668,2.668Zm8-3.335a2.668,2.668,0,0,1-5.336,0V8.671a2.668,2.668,0,0,1,5.336,0Zm5.336-10A1.336,1.336,0,0,1,64.3,25.346H62.964v-8H64.3a1.336,1.336,0,0,1,1.334,1.334Zm0,0" transform="translate(0.001 0)" fill="#20926b"/><path d="M213.351,152.668a1.334,1.334,0,1,1,0-2.668h0a1.334,1.334,0,0,1,0,2.668Zm0,0" transform="translate(-183.733 -129.99)" fill="#20926b"/></g></g></svg>