<svg xmlns="http://www.w3.org/2000/svg" width="58.505" height="58.504" viewBox="0 0 58.505 58.504"><g transform="translate(-143.36 -4237.748)"><ellipse cx="29.252" cy="29.252" rx="29.252" ry="29.252" transform="translate(143.36 4237.748)" fill="#777"/><path d="M29.089,6.562c.021.288.021.576.021.864,0,8.784-6.686,18.906-18.906,18.906A18.778,18.778,0,0,1,0,23.349a13.745,13.745,0,0,0,1.6.082,13.308,13.308,0,0,0,8.249-2.839,6.657,6.657,0,0,1-6.213-4.608,8.379,8.379,0,0,0,1.255.1,7.028,7.028,0,0,0,1.749-.226A6.646,6.646,0,0,1,1.317,9.34V9.257a6.692,6.692,0,0,0,3,.843A6.655,6.655,0,0,1,2.263,1.214a18.888,18.888,0,0,0,13.7,6.953A7.5,7.5,0,0,1,15.8,6.645,6.651,6.651,0,0,1,27.3,2.1a13.082,13.082,0,0,0,4.217-1.6A6.627,6.627,0,0,1,28.6,4.156a13.321,13.321,0,0,0,3.826-1.029,14.284,14.284,0,0,1-3.333,3.435Z" transform="translate(156.361 4254)" fill="#fff"/></g></svg>