<svg xmlns="http://www.w3.org/2000/svg" width="697.077" height="589.301" viewBox="0 0 697.077 589.301"><path d="M421.054,210.521a211.175,211.175,0,0,1-4.122,41.639c-.417,2.112-.872,4.2-1.353,6.284a209.729,209.729,0,0,1-38,80.2c-1.517,1.985-3.085,3.945-4.678,5.88A210.531,210.531,0,0,1,60.874,358.577c-1.72-1.72-3.389-3.477-5.033-5.26a210.045,210.045,0,0,1-48.533-87.6q-.873-3.186-1.631-6.436a212.516,212.516,0,0,1-2.4-85.958c.379-2.1.784-4.173,1.214-6.247a209.705,209.705,0,0,1,46.1-93.456q3.6-4.211,7.435-8.219A210.532,210.532,0,0,1,346.968,50.188q3.529,3,6.9,6.132a210.465,210.465,0,0,1,60.871,102.864c.632,2.478,1.2,4.982,1.745,7.511A211.97,211.97,0,0,1,421.054,210.521Z" transform="translate(118.205)" fill="#38435b" opacity="0.6"/><path d="M303.278,6.31H302c-15.072,0-31.4,4.527-48.667,9.319-19.372,5.361-39.4,10.912-60.2,10.912-18.348,0-37.125-5.2-55.27-10.217-17.753-4.919-36.1-10-53.587-10-19.941,0-39.54,5.437-58.494,10.685C16.956,19.46,8.358,21.837,0,23.608Q3.6,19.4,7.435,15.389c5.437-1.366,11-2.908,16.653-4.476C43.459,5.551,63.476,0,84.276,0c18.347,0,37.124,5.2,55.269,10.23,17.753,4.906,36.1,9.989,53.588,9.989,19.94,0,39.552-5.437,58.506-10.685C267.269,5.2,282.151,1.075,296.376.177Q299.9,3.174,303.278,6.31Z" transform="translate(168.8 50.011)" fill="#fff"/><path d="M413.21,19.068c-1.884-.733-3.73-1.492-5.589-2.25-12.606-5.159-25.643-10.5-58.292-10.5h-.013c-15.072,0-31.4,4.527-48.667,9.319-19.372,5.374-39.4,10.925-60.2,10.925-18.348,0-37.125-5.2-55.27-10.23-17.753-4.919-36.1-10-53.587-10-19.941,0-39.54,5.437-58.494,10.7-17.7,4.906-34.431,9.534-50.363,9.534q-11.324,0-22.735-.873c.379-2.1.784-4.173,1.214-6.247,7.182.531,14.377.8,21.521.8,15.072,0,31.4-4.514,48.669-9.307C90.775,5.564,110.792.013,131.592.013c18.347,0,37.124,5.2,55.269,10.23,17.753,4.919,36.1,10,53.588,10,19.94,0,39.552-5.437,58.506-10.7C316.658,4.641,333.387,0,349.319,0h.013c33.888,0,47.519,5.577,60.694,10.963.481.2.963.392,1.442.594C412.1,14.035,412.667,16.539,413.21,19.068Z" transform="translate(121.484 147.627)" fill="#fff"/><path d="M411.25,12.417c-.417,2.112-.872,4.2-1.353,6.284-1.568-.632-3.123-1.264-4.678-1.9-12.606-5.159-25.643-10.483-58.292-10.483h-.013c-15.072,0-31.4,4.527-48.667,9.307-19.372,5.374-39.4,10.925-60.2,10.925-18.348,0-37.125-5.2-55.27-10.229-17.753-4.919-36.1-10-53.587-10-19.941.013-39.54,5.437-58.494,10.7-17.7,4.906-34.431,9.546-50.363,9.546-6.209,0-12.455-.2-18.7-.594Q.758,22.786,0,19.536c6.79.468,13.58.708,20.333.708a114.429,114.429,0,0,0,23.506-2.857C51.97,15.654,60.365,13.316,69,10.925,88.375,5.564,108.392.013,129.192,0c18.347,0,37.124,5.208,55.269,10.23,17.753,4.919,36.1,10,53.588,10,19.94,0,39.552-5.437,58.506-10.7C314.258,4.628,330.987,0,346.919,0h.013c33.888,0,47.519,5.564,60.694,10.95C408.835,11.443,410.037,11.936,411.25,12.417Z" transform="translate(123.886 239.743)" fill="#fff"/><path d="M321.74,1.282c-1.517,1.985-3.085,3.945-4.678,5.88-5.816-.531-12.493-.835-20.295-.835h-.013c-15.072,0-31.4,4.527-48.667,9.319-19.372,5.362-39.4,10.912-60.2,10.925-18.348,0-37.125-5.208-55.27-10.229-17.753-4.919-36.1-10-53.587-10-19.941,0-39.54,5.437-58.494,10.685-5.247,1.454-10.419,2.9-15.5,4.185C3.313,19.491,1.644,17.733,0,15.95c6.145-1.492,12.429-3.239,18.84-5.007C38.212,5.568,58.229.018,79.029.018c18.347,0,37.124,5.2,55.269,10.23,17.753,4.919,36.1,10,53.588,10,19.94-.013,39.552-5.437,58.506-10.7,17.7-4.906,34.432-9.546,50.363-9.546h.013A215.8,215.8,0,0,1,321.74,1.282Z" transform="translate(174.047 337.366)" fill="#fff"/><path d="M662.012,143.873H0S13.417,94.145,82.009,92.719c8.626-.17,15.512-1.99,21.075-5a36.04,36.04,0,0,0,9.5-7.461c25.146-27.606,9.7-90.216,60.371-75.62,64.116,18.469,128.231,38.354,199.792,2.84C402.124-7.1,432.231,1.286,460.217,18.512c30.094,18.509,57.714,47.229,79.3,68.591.144.144.3.288.458.445,3.246,3.22,6.375,6.27,9.333,9.072.445.432.875.838,1.309,1.243,1.9,1.78,3.731,3.469,5.485,5.027,1.034.916,2.042,1.794,3.024,2.618,2.775,2.343,5.681,4.542,8.692,6.611.209.144.406.288.6.419l.628.432a148.792,148.792,0,0,0,21.284,11.755C625.085,140.588,662.012,143.873,662.012,143.873Z" transform="translate(35.065 443.515)" fill="#38435b" opacity="0.4"/><path d="M31.617,74.748a28.233,28.233,0,0,1,.21,6.65c-.157,3.246-.314,6.506-.458,9.752,0,.026,0,.039-.013.053-.118,2.422-.222,4.83-.34,7.252H12.493a13.16,13.16,0,0,0-.942-3.783c-1.021-2.448-2.932-4.778-2.538-7.4.263-1.819,1.61-3.3,2.225-5.026,1.034-2.893-.118-6.139-1.859-8.665s-4.07-4.6-5.825-7.121a19.819,19.819,0,0,1-3.22-7.7,19.563,19.563,0,0,1-.327-4.1,6.933,6.933,0,0,1,1.3-4.346c1.584-1.885,4.989-2.762,4.791-5.236-.131-1.636-1.872-2.553-3.064-3.692-3.26-3.168-2.3-8.521-1.1-12.907Q4.6,18.69,7.284,8.867C8.29,5.147,9.993.777,13.776.083c2.736-.5,5.433,1.309,7.043,3.573s2.474,4.961,3.744,7.435c1.846,3.6,4.6,6.715,6.139,10.46s1.584,8.6-1.479,11.258c-.419.366-.93.838-.759,1.361.131.38.563.537.916.72,2.12,1.06,2.683,3.8,2.893,6.166.1,1.256.2,2.513.235,3.77a88.621,88.621,0,0,1-1.256,19.607,21.27,21.27,0,0,0-.55,6.086C30.858,71.96,31.342,73.334,31.617,74.748Z" transform="translate(178.212 488.934)" fill="#20926b" opacity="0.6"/><path d="M2.959,74.613c-.026.825-.039,1.649-.066,2.487H2c.026-1.244.066-2.474.092-3.692C3.011,30.788.038.484,0,.092L.89,0C.93.393,3.953,31.312,2.959,74.613Z" transform="translate(194.187 510.287)" fill="#fff"/><path d="M53.158.881c-.249,2.945-1.112,11.86-3.246,23.405a.8.8,0,0,1-1.191.55.812.812,0,0,0-1.191.916l1.256,4.32v.013c-1.23,5.917-2.762,12.3-4.7,18.823a.8.8,0,0,1-.772.576h-4.8a.812.812,0,0,0-.6,1.348l4.137,4.555V55.4A136,136,0,0,1,30.591,81.28a.825.825,0,0,1-.55.379L22,83.112a.807.807,0,0,0-.34,1.44l.432.327H.471A68.132,68.132,0,0,1,0,77.732a.884.884,0,0,1,.17-.51l1.976-2.513a.8.8,0,0,0-.432-1.269L.694,73.177a.8.8,0,0,1-.6-.812,120.467,120.467,0,0,1,2.5-18.928.788.788,0,0,1,.5-.589l3.573-1.4a.8.8,0,0,0,.17-1.4L4.295,48.241a.814.814,0,0,1-.327-.851,70.68,70.68,0,0,1,6.3-16.14A63.706,63.706,0,0,1,14.6,24.4a.783.783,0,0,1,.875-.288l2.972.875a.81.81,0,0,0,.955-1.126l-1.44-2.919a.82.82,0,0,1,.1-.89A64.3,64.3,0,0,1,52.2.015a.8.8,0,0,1,.956.866Z" transform="translate(200.457 502.509)" fill="#20926b"/><path d="M61.894,67.982H37.3c-.078-.17-.17-.34-.249-.511-1.44-2.958-2.919-6.335-1.767-9.425.563-1.532,1.78-2.984,1.506-4.608-2.723-.811-5.393,1.44-8.221,1.7-3.508.314-6.477-2.435-8.928-4.974-2.893-3.011-6.034-6.925-4.791-10.917.2-.615.471-1.309.144-1.859a1.97,1.97,0,0,0-1.506-.681c-1.387-.17-2.775-.354-4.149-.525a3.749,3.749,0,0,1-2.029-.667,3.839,3.839,0,0,1-.982-2.16Q4.029,22.6,1.719,11.826C1.247,9.614.776,7.414.3,5.2A6.074,6.074,0,0,1,.344,1.315C.907.124,2.713-.5,3.577.5,6.1,1.838,8.643,3.134,11.222,4.364Q21.491,9.354,32.2,13.344A13.186,13.186,0,0,1,36.5,15.583c3.181,2.88,2.683,8.051,4.909,11.715a7.622,7.622,0,0,0,.707,1c3.089,3.835,8.862,5.339,11.139,9.765,1.335,2.631,1.152,5.747.786,8.679-.537,4.346-1.269,9.15,1.217,12.763,1.231,1.794,3.116,3.037,4.516,4.7.026.026.053.065.079.091a11.213,11.213,0,0,1,.864,1.2,12.733,12.733,0,0,1,1.179,2.488Z" transform="translate(136.429 519.406)" fill="#20926b"/><path d="M31.887.681C9.726,20.172,2.736,46.94.89,66.837H0q.315-3.5.864-7.252c.013-.013.013-.026.013-.053C3.7,40.539,11.506,17.4,31.3,0Z" transform="translate(208.704 520.551)" fill="#fff"/><path d="M39.963,53.787h-.955C21.021,9.346.249.929,0,.838L.314,0C.628.118,8.181,3.064,18.2,15.2,24.4,22.711,32.358,34.871,39.963,53.787Z" transform="translate(149.105 533.601)" fill="#fff"/><path d="M46.938,110.967a41.567,41.567,0,0,1,.314,9.883c-.235,4.858-.458,9.7-.694,14.556v.013q-.2,4.162-.406,8.338-.275,5.969-.563,11.938a5.5,5.5,0,0,1-.916,3.39,1.21,1.21,0,0,1-.183.183c-1.767,1.728-5.733,1.65-5.589,4.1.065,1.283,1.4,2.042,2.343,2.906a7.19,7.19,0,0,1,1.767,6.9,9.23,9.23,0,0,1-.642,1.926H18.023c-.144-.484-.275-.982-.38-1.479a34.319,34.319,0,0,1-.327-10.668c.275-2.474.667-4.989.969-7.488.118-1.007.222-2,.3-3,.314-4.11.144-8.14-1.44-11.912-1.519-3.626-4.359-7.082-3.77-10.982.406-2.7,2.4-4.883,3.312-7.461a10.377,10.377,0,0,0,.563-3.783,17.357,17.357,0,0,0-3.326-9.071c-2.6-3.744-6.047-6.833-8.652-10.577A29.322,29.322,0,0,1,.009,81.162c.053-2.276.445-4.7,1.911-6.44C4.29,71.907,9.33,70.6,9.042,66.947c-.183-2.435-2.788-3.8-4.542-5.5C-.344,56.763,1.083,48.8,2.85,42.3Q6.836,27.729,10.808,13.16C12.314,7.649,14.827,1.143,20.456.122c4.058-.733,8.05,1.937,10.46,5.3s3.665,7.37,5.55,11.035c2.749,5.339,6.82,9.974,9.124,15.525s2.343,12.789-2.2,16.729c-.615.537-1.388,1.244-1.126,2.016.2.563.825.8,1.361,1.06,3.155,1.584,3.966,5.642,4.281,9.163.17,1.872.288,3.731.366,5.6A133.061,133.061,0,0,1,46.4,95.666c-.537,3-1.165,6.021-.825,9.045C45.826,106.83,46.545,108.872,46.938,110.967Z" transform="translate(557.332 412.294)" fill="#20926b" opacity="0.7"/><path d="M4.621,97.39q-.079,6.558-.236,13.4c-.222,9.453-.576,19.308-1.086,29.478-.053,1.034-.1,2.081-.157,3.129H1.819q.059-1.06.118-2.12c0-.079.013-.157.013-.223.563-11.1.93-21.821,1.152-32.057q.138-6.578.21-12.854C3.875,39.715.052.668,0,.131L1.309,0C1.361.55,5.249,40.212,4.621,97.39Z" transform="translate(581.062 443.987)" fill="#fff"/><path d="M78.92,1.293C78.554,5.665,77.27,18.9,74.1,36.047a1.194,1.194,0,0,1-1.78.811,1.2,1.2,0,0,0-1.754,1.362l1.859,6.427c-1.82,8.784-4.11,18.274-6.977,27.947a1.19,1.19,0,0,1-1.138.864H57.179a1.19,1.19,0,0,0-.89,1.99l6.139,6.78c-2.212,6.65-4.727,13.287-7.553,19.753a174.6,174.6,0,0,1-9.464,18.679,1.187,1.187,0,0,1-.825.576L32.661,123.4a1.191,1.191,0,0,0-.51,2.121l5.838,4.45a1.214,1.214,0,0,1,.236,1.663c-1.034,1.414-2.108,2.8-3.195,4.149A81.443,81.443,0,0,1,13.549,154.93H11.638a.111.111,0,0,1,0,.091.5.5,0,0,0-.078-.091A21.423,21.423,0,0,1,9.976,153C6.493,148.345.341,137.1,0,115.4a1.151,1.151,0,0,1,.249-.759l.55-.694,2.382-3.037a1.2,1.2,0,0,0-.656-1.9l-1.506-.38a1.182,1.182,0,0,1-.89-1.2,178.745,178.745,0,0,1,3.7-28.1,1.232,1.232,0,0,1,.744-.875l5.3-2.068a1.19,1.19,0,0,0,.263-2.081L6.359,71.613a1.182,1.182,0,0,1-.471-1.269,103.838,103.838,0,0,1,9.346-23.955,93.817,93.817,0,0,1,6.427-10.171,1.188,1.188,0,0,1,1.309-.432l4.4,1.309a1.2,1.2,0,0,0,1.414-1.675l-2.134-4.333a1.223,1.223,0,0,1,.17-1.322A95.273,95.273,0,0,1,77.5.025,1.182,1.182,0,0,1,78.92,1.293Z" transform="translate(590.368 432.458)" fill="#20926b"/><path d="M84.248,129.524c-6.168-1.474-12.666-3.126-17.173-7.587-2.782-2.753-4.548-6.343-6.264-9.861l-5.8-11.891c-2.144-4.394-4.328-9.415-2.629-14,.848-2.287,2.648-4.439,2.232-6.842-4.034-1.217-8,2.134-12.192,2.514-5.22.473-9.619-3.608-13.254-7.384C24.864,70,20.207,64.2,22.055,58.271c.283-.907.7-1.934.215-2.748a2.887,2.887,0,0,0-2.246-1.018l-6.162-.783a5.548,5.548,0,0,1-3-1,5.564,5.564,0,0,1-1.451-3.192L.457,7.726c-.411-1.918-.8-4,.05-5.771S4.041-.749,5.317.741a360.579,360.579,0,0,0,42.5,19.074A19.156,19.156,0,0,1,54.2,23.141c4.713,4.271,3.973,11.958,7.286,17.387,4.17,6.833,13.933,8.857,17.583,15.981,2,3.9,1.713,8.534,1.177,12.882-.8,6.451-1.889,13.595,1.794,18.95,1.832,2.664,4.635,4.5,6.715,6.977,3.488,4.151,4.688,9.847,4.4,15.259s-1.918,10.655-3.538,15.829Z" transform="translate(495.291 457.533)" fill="#20926b"/><path d="M48.2,1C16.021,29.284,5.393,67.926,2.369,97.247A199.177,199.177,0,0,0,1.6,128.153H.261c-.222-4.346-.354-9.713-.183-15.826.131-4.882.458-10.236,1.06-15.93.275-2.579.6-5.208,1.007-7.921v-.013C6.333,60.24,17.931,25.852,47.318,0Z" transform="translate(601.745 459.235)" fill="#fff"/><path d="M69.547,108.791h-1.4c-.17-.55-.327-1.087-.5-1.623q-3-9.562-6.152-18.012C34.06,15.053.379,1.388,0,1.243L.471,0C.93.183,12.134,4.555,27,22.58,36.888,34.544,49.781,54.441,61.8,86.158c2.382,6.3,4.738,13.064,7.016,20.329a1.044,1.044,0,0,1,.065.183Z" transform="translate(514.12 478.597)" fill="#fff"/><rect width="227.118" height="299.451" rx="35.892" transform="translate(19.877 78.816)" fill="#feffff"/><rect width="171.305" height="52.727" rx="26.364" transform="translate(50.117 132.28)" fill="#c5cbd1" opacity="0.248"/><rect width="171.305" height="52.727" rx="26.364" transform="translate(47.55 222.792)" fill="#c5cbd1" opacity="0.248"/><rect width="172.668" height="42.808" rx="21.404" transform="translate(46.807 302.604)" fill="#20926b"/><ellipse cx="28.456" cy="28.456" rx="28.456" ry="28.456" transform="translate(0 56.019)" fill="#20926b"/><path d="M.863,19.779A.863.863,0,0,1,.253,18.3L18.328.253a.864.864,0,1,1,1.221,1.222L1.474,19.527a.862.862,0,0,1-.611.253Z" transform="translate(18.856 75.166)" fill="#fff"/><path d="M18.917,19.8a.861.861,0,0,1-.613-.253L.252,1.474A.864.864,0,0,1,1.475.253L19.527,18.328a.863.863,0,0,1-.613,1.474Z" transform="translate(18.865 75.153)" fill="#fff"/><path d="M18.558,15.017.515,56.083A6.1,6.1,0,0,0,2.6,63.527h0a6.1,6.1,0,0,0,8.49-1.5L46.968,10.81,29.346,0Z" transform="translate(496.401 489.75)" fill="#20926b"/><path d="M0,0H18.49V16.711a7.474,7.474,0,0,1-7.474,7.474H7.474A7.474,7.474,0,0,1,0,16.711Z" transform="translate(499.004 496.905) rotate(-54.989)" fill="#fb855f"/><path d="M48.885,0,4.9,8.784A6.1,6.1,0,0,0,0,14.761H0a6.1,6.1,0,0,0,6.1,6.1h62.54L67.378.222Z" transform="translate(272.068 568.445)" fill="#20926b"/><path d="M0,0H18.49V16.711a7.474,7.474,0,0,1-7.474,7.474H7.474A7.474,7.474,0,0,1,0,16.711Z" transform="translate(316.71 553.802)" fill="#fb855f"/><path d="M25.653,2.31S35.383,37.384,37.887,67.4c.751,8.941.859,17.439-.118,24.426-1.535,10.845-5.686,18.036-14.153,17.606a11.318,11.318,0,0,1-3.752-.832c0-.007-.01-.014-.017-.009a12.916,12.916,0,0,1-2.883-1.654.438.438,0,0,1-.066-.05,20.381,20.381,0,0,1-4.616-5.208C9.127,96.815,6.758,89.983,5,82.181-2,51.271.394,5.133.394,5.133,11.223-4.438,25.653,2.31,25.653,2.31Z" transform="translate(223.808 68.022)" fill="#20926b"/><path d="M104.791,30.946S66.4,58.554,35.8,67.227c-10.223,2.9-19.571,3.692-26.34.643,0-.007-.01-.014-.017-.009a17.292,17.292,0,0,1-2.883-1.654.438.438,0,0,1-.066-.05A16.157,16.157,0,0,1,1.875,60.95,17.759,17.759,0,0,1,.9,59c-2.538-5.883.5-12.1,6.744-18.186,4.978-4.858,11.992-9.644,19.84-14.138C53.612,11.739,88.965.118,88.965.118,104.006-1.767,117.365,19.36,104.791,30.946Z" transform="translate(234.215 108.75)" fill="#20926b"/><path d="M13.251,56.149a.11.11,0,0,0-.053,0c-.855-.116-1.676-.251-2.457-.433a14.6,14.6,0,0,1-7.465-3.892A11.635,11.635,0,0,1,1.54,49.472C-1.727,43.654.425,38.123,5.906,33.017,10.842,28.4,18.481,24.135,27.279,20.3,55.84,7.855,96.574,0,96.574,0s12.455,9.913,8.7,23.878c0,0-42.615,24-73.691,30.752C24.714,56.133,18.41,56.779,13.251,56.149Z" transform="translate(401.045 172.824)" fill="#20926b"/><path d="M44.266,111.919a.11.11,0,0,0-.053,0,16.456,16.456,0,0,1-2.457-.433,20.045,20.045,0,0,1-7.465-3.892c-4.5-3.584-8.531-9.125-12.113-15.737C7.093,63.989.022,17.064.022,17.064-.83-.015,22.976-5.548,32.388,6.342c0,0,19.4,39.178,25.906,69.732,2.2,10.331,2.932,19.679.935,26.192-1.219,3.993-3.455,6.915-6.994,8.355a16.867,16.867,0,0,1-7.97,1.3Z" transform="translate(370.03 117.054)" fill="#20926b"/><path d="M29.238,183.124h0a25.538,25.538,0,0,1-25.511-24.1C.559,101.731-.833,43.043.509,0H56.423c-1.767,49.031-2.2,106.086-1.636,157.288a25.549,25.549,0,0,1-25.549,25.837Z" transform="translate(287.578 240.73)" fill="#575756"/><path d="M25.458,0h0A25.452,25.452,0,0,0,.045,26.968C3,76.344,7.207,148.508,9.4,180.166H52.664c-1.717-36.069-1.2-110.017-1.751-155.032A25.451,25.451,0,0,0,25.458,0Z" transform="translate(291.337 374.597)" fill="#575756"/><path d="M67.668,184.669h0a25.538,25.538,0,0,1-30.122-18.014C22.058,111.407,8,54.412,0,12.1L54.589,0c8.884,48.253,20.8,104.049,32.433,153.917a25.549,25.549,0,0,1-19.355,30.752Z" transform="translate(339.627 221.426)" fill="#575756"/><path d="M8.317,6.638h0a25.453,25.453,0,0,0-.627,37.05C43.121,78.2,94.825,128.719,117.764,150.649l31.987-29.135C124.192,96,74.782,40.984,44.059,8.079A25.451,25.451,0,0,0,8.317,6.638Z" transform="translate(378.294 360.061)" fill="#575756"/><path d="M0,135.193S1.431,21.711,32.723,5.557c17.94-9.261,55.068-6.746,74,6.049,19.109,12.913,5.613,123.587,5.613,123.587Z" transform="translate(288.087 105.537)" fill="#20926b"/><path d="M2.64,20.234s2.705-5.768,7.16-8.456S17.59,7.834,20.543,2.5s8.294-1.154,5.523,3.355-8.2,11.015-1.646,12.571,20.263-8.884,21.633,1.764c0,0,7.276-3.127,8.3.235S48.8,26.666,48.8,26.666s7.9,5.256-10.119,9.553c0,0,2.029,4.016-1.35,5.308-5.4,2.065-18.337,1.377-28.055-2.083C-6.516,33.821,2.64,20.234,2.64,20.234Z" transform="translate(490.757 156.408)" fill="#fd8b66"/><path d="M.088,5.416,0,4.557C16.344,2.86,20.217.028,20.254,0l.531.681C20.629.8,16.794,3.681.088,5.416Z" transform="translate(516.293 176.258)" fill="#e56542"/><path d="M.014,5.069,0,4.206C8.77,4.06,21.24.04,21.365,0l.267.821C21.505.861,8.91,4.92.014,5.069Z" transform="translate(518.058 182.665)" fill="#e56542"/><path d="M.006,1.236,0,.372C5.314.333,12.079,0,12.147,0l.044.863C12.122.866,5.339,1.2.006,1.236Z" transform="translate(517.268 192.196)" fill="#e56542"/><g transform="translate(211.877 32.701)"><path d="M36.333,39.939s2.271-5.7,1.382-10.822-2.068-8.481-.245-14.1S33.2,7.891,31.824,12.855,29.336,26.081,24.284,22,17.97.8,9.9,6.412c0,0-2.31-7.574-5.219-6.258s-.855,8.194-.855,8.194-8.387-2.8-.323,13.794c0,0-3.966.95-2.784,4.366,1.891,5.464,10.244,15.016,18.517,20.346C32.681,55.516,36.333,39.939,36.333,39.939Z" transform="translate(0 0)" fill="#fd8b66"/><path d="M9.392,18.972C.393,5,.012.25,0,.055L.862,0c0,.047.438,4.812,9.256,18.5Z" transform="translate(9.467 6.382)" fill="#e56542"/><path d="M10.285,19.655C4.965,12.7.048.442,0,.319L.8,0C.85.122,5.724,12.269,10.971,19.13Z" transform="translate(3.425 8.187)" fill="#e56542"/><path d="M7.173,10.139C3.949,6,.039.558,0,.5L.7,0C.739.055,4.639,5.483,7.852,9.608Z" transform="translate(3.15 21.889)" fill="#e56542"/></g><path d="M14.951,46C3.115,46-2.282,32.17.9,28.99a11.212,11.212,0,0,0,2.232-3.457h.009a23.3,23.3,0,0,0,1.607-6l.009-.008L26.638,0C25.456,12.429,30.775,21.152,32.7,27.366S28.412,46,14.951,46Z" transform="translate(339.182 79.352)" fill="#fb855f"/><path d="M19.657,4.048C13.382,16.05.365,14.857,0,14.884a23.3,23.3,0,0,0,1.607-6l.009-.008C2.207,8.532,25.539-7.2,19.657,4.048Z" transform="translate(342.322 89.999)" fill="#e56542"/><path d="M24.544,2.375S23.6,13.718,7.111,25.4C-10.181,37.655,9.5,0,9.5,0Z" transform="translate(362.92 54.647)" fill="#8e3332"/><path d="M7.92,0S5.585,9.774,2.558,20.745c-4.327,15.683-4.7,28.364,11.279,28.364,26.831,0,25.045-44.524,25.045-44.524Z" transform="translate(334.523 50.208)" fill="#fb855f"/><path d="M.009,21.514C-.008,20.8-.341,3.974,5.273,0l1,1.41C2.231,4.27,1.627,16.863,1.736,21.473Z" transform="translate(291.494 163.019)" fill="#feffff"/><rect width="1.727" height="15.928" transform="translate(260.868 135.852) rotate(-1.871)" fill="#feffff"/><rect width="14.105" height="1.727" transform="matrix(0.263, -0.965, 0.965, 0.263, 423.778, 206.509)" fill="#feffff"/><path d="M0,53.788l48.3-2.2L32.932,3.293,9.879,0,0,53.788Z" transform="translate(316.345 243.938)" fill="#575756"/><path d="M14.067,33.349,0,32.176,3.951,0,5.665.211,1.933,30.6,14.21,31.628l-.144,1.721Z" transform="translate(331.844 241.088)" fill="#fff"/><ellipse cx="8.988" cy="8.988" rx="8.988" ry="8.988" transform="translate(360.802 72.42)" fill="#fb855f"/><path d="M1.145,49.69,0,48.4l5.877-5.2L8.029,0,9.753.086,7.566,44,1.145,49.69Z" transform="translate(287.232 240.633)" fill="#fff"/><path d="M20.7,48.961l-9.609-3.075L0,.409,1.678,0,12.541,44.536l8.686,2.78L20.7,48.961Z" transform="translate(386.491 240.806)" fill="#fff"/><path d="M1.4,15.539,0,1.646,42.811,0l1.86,15.539Z" transform="translate(299.33 539.224)" fill="#c5c5c5"/><path d="M0,29.09l12.032,11.69L44.019,11.645,31.834,0,0,29.09Z" transform="translate(484.026 469.931)" fill="#c5c5c5"/><path d="M21.54,28.2c-1.232,0-2.526-.065-3.889-.2C-1.625,26.109.024.261.042,0L1.765.124a41,41,0,0,0,1.4,12.593C5.552,21,10.483,25.561,17.822,26.28c18.367,1.8,23.528-9.426,28.367-24.29l1.642.534C43.262,16.556,38.045,28.2,21.54,28.2Z" transform="translate(332.639 104.831)" fill="#feffff"/><path d="M30.617,24.346s-2.2-7.684-9.879-5.854S9.395,23.981,5.37,22.151,0,12.929,0,12.929,2.845-5.142,25.9,1.445,44.156,22.151,44.156,22.151l-8.05,3.659Z" transform="translate(342.443 37.279)" fill="#8e3332"/><ellipse cx="1.875" cy="1.875" rx="1.875" ry="1.875" transform="translate(355.223 69.675)" fill="#8e3332"/><ellipse cx="1.875" cy="1.875" rx="1.875" ry="1.875" transform="translate(343.53 67.094)" fill="#8e3332"/><path d="M4.012,12.692a4.079,4.079,0,0,1-3.745-2.06c-.583-1.21-.359-3.087,2.193-4.4A5.981,5.981,0,0,0,5.7.246L7.413,0A7.716,7.716,0,0,1,3.249,7.77C2.024,8.4,1.489,9.19,1.822,9.882c.394.821,2,1.544,3.875.7l.711,1.576a5.829,5.829,0,0,1-2.4.537Z" transform="translate(344.145 71.106)" fill="#8e3332"/><path d="M.043,0,9.1,1.372S7.59,7.272,3.473,6.586.043,0,.043,0Z" transform="translate(341.687 87.651)" fill="#fff"/><path d="M4.471,5.058A5.576,5.576,0,0,0,0,1.724L.088,0A7.271,7.271,0,0,1,6.045,4.35Z" transform="translate(357.235 65.57)" fill="#8e3332"/><path d="M6.377,2.876C3.905,1.121.432,1.906.4,1.913L0,.233C.172.191,4.258-.747,7.377,1.466Z" transform="translate(342.261 62.202)" fill="#8e3332"/><path d="M3.983,4.888C3.545,2.03.036,1.725,0,1.722L.134,0c1.7.131,5.038,1.269,5.555,4.625Z" transform="translate(369.963 79.189)" fill="#8e3332"/><path d="M16.223,60.329V22.848a6.633,6.633,0,0,1,6.626-6.626H61.337a6.633,6.633,0,0,1,6.626,6.626V60.329H84.186V22.848A22.874,22.874,0,0,0,61.337,0H22.848A22.874,22.874,0,0,0,0,22.848V60.329Z" transform="translate(481.084 6.827)" fill="#fff"/><rect width="110.765" height="79.042" rx="14.827" transform="translate(467.794 58.97)" fill="#20926b"/><rect width="11.974" height="46.595" rx="5.987" transform="translate(517.19 70.536)" fill="#fff"/><ellipse cx="12.376" cy="12.376" rx="12.376" ry="12.376" transform="translate(510.8 70.536)" fill="#fff"/></svg>