<svg xmlns="http://www.w3.org/2000/svg" width="129.413" height="129.38" viewBox="0 0 129.413 129.38"><g transform="translate(-366 -3052)"><rect width="129.413" height="129.38" rx="15" transform="translate(366 3052)" fill="#f4fbf8"/><g transform="translate(397 3079)"><g transform="translate(0)"><path d="M95.668,40.293l-2.821,1.654A3.764,3.764,0,0,1,89,41.926l-2.637-1.585a8.231,8.231,0,0,0-8.41-.046l-2.818,1.653a3.764,3.764,0,0,1-3.846-.021l-2.637-1.585a8.262,8.262,0,0,0-.817-.43V9.248a4.784,4.784,0,0,1,9.568,0v5.047h4.464V9.248a9.248,9.248,0,0,0-18.5,0V27H44.607V9.248a4.784,4.784,0,0,1,9.568,0v5.047h4.464V9.248a9.248,9.248,0,0,0-18.5,0V41.694l-.431.253a3.764,3.764,0,0,1-3.846-.021l-2.62-1.575-2.3,3.826,2.62,1.575a8.225,8.225,0,0,0,8.4.046l2.818-1.653a3.77,3.77,0,0,1,3.852.021l2.637,1.585a8.225,8.225,0,0,0,8.4.046L62.5,44.145a3.77,3.77,0,0,1,3.852.021l2.637,1.585a8.226,8.226,0,0,0,8.4.046l2.818-1.653a3.77,3.77,0,0,1,3.852.021L86.7,45.752a8.225,8.225,0,0,0,8.4.046l2.821-1.654Zm-32.3-1.065a8.231,8.231,0,0,0-3.13,1.067l-2.818,1.653a3.764,3.764,0,0,1-3.846-.021l-2.637-1.585a8.231,8.231,0,0,0-6.334-.908V31.466H63.372Z" transform="translate(-30.946)" fill="#20926b"/></g><g transform="translate(0 54.062)"><path d="M95.667,364.428l-2.821,1.655A3.764,3.764,0,0,1,89,366.061l-2.637-1.586a8.232,8.232,0,0,0-8.41-.046l-2.818,1.653a3.764,3.764,0,0,1-3.846-.021l-2.637-1.585a8.23,8.23,0,0,0-8.41-.046l-2.818,1.653a3.763,3.763,0,0,1-3.846-.021l-2.637-1.586a8.231,8.231,0,0,0-8.41-.046l-2.818,1.653a3.764,3.764,0,0,1-3.846-.021l-2.62-1.575-2.3,3.826,2.62,1.575a8.226,8.226,0,0,0,8.4.046l2.818-1.653a3.769,3.769,0,0,1,3.852.021l2.637,1.586a8.226,8.226,0,0,0,8.4.046L62.5,368.28a3.768,3.768,0,0,1,3.852.021l2.637,1.586a8.226,8.226,0,0,0,8.4.046l2.819-1.653a3.768,3.768,0,0,1,3.852.021l2.637,1.586a8.226,8.226,0,0,0,8.4.046l2.821-1.654Z" transform="translate(-30.944 -363.297)" fill="#20926b"/></g><g transform="translate(0 68.423)"><path d="M95.668,460.932l-2.821,1.655A3.764,3.764,0,0,1,89,462.566l-2.637-1.585a8.232,8.232,0,0,0-8.41-.046l-2.818,1.653a3.765,3.765,0,0,1-3.846-.021l-2.637-1.585a8.231,8.231,0,0,0-8.41-.046l-2.818,1.653a3.764,3.764,0,0,1-3.846-.021L50.94,460.98a8.232,8.232,0,0,0-8.41-.046l-2.818,1.653a3.764,3.764,0,0,1-3.846-.021l-2.619-1.575-2.3,3.826,2.62,1.575a8.225,8.225,0,0,0,8.4.046l2.818-1.653a3.77,3.77,0,0,1,3.852.021l2.637,1.585a8.224,8.224,0,0,0,8.4.046l2.818-1.653a3.768,3.768,0,0,1,3.852.021l2.637,1.585a8.226,8.226,0,0,0,8.4.046l2.819-1.653a3.77,3.77,0,0,1,3.852.021l2.637,1.585a8.225,8.225,0,0,0,8.4.046l2.821-1.655Z" transform="translate(-30.946 -459.802)" fill="#20926b"/></g></g></g></svg>