<svg xmlns="http://www.w3.org/2000/svg" width="41.722" height="41.722" viewBox="0 0 41.722 41.722"><g transform="translate(41.722) rotate(90)"><circle cx="20.861" cy="20.861" r="20.861" transform="translate(0 0)" fill="#0a66c2"/><path d="M4.365,19.5H.322V6.48H4.365ZM2.341,4.7A2.352,2.352,0,1,1,4.682,2.341,2.361,2.361,0,0,1,2.341,4.7ZM19.495,19.5H15.461V13.161c0-1.51-.03-3.447-2.1-3.447-2.1,0-2.424,1.641-2.424,3.338V19.5H6.9V6.48h3.877V8.256h.057a4.248,4.248,0,0,1,3.825-2.1c4.091,0,4.843,2.694,4.843,6.194V19.5Z" transform="translate(11.111 9.272)" fill="#fff"/></g></svg>