<svg xmlns="http://www.w3.org/2000/svg" width="69" height="70" viewBox="0 0 69 70"><g transform="translate(-205.335 0.176)"><ellipse cx="34.5" cy="35" rx="34.5" ry="35" transform="translate(205.335 -0.176)" fill="#0a66c2"/><path d="M7.286,32.55H.538V10.819H7.286ZM3.908,7.854A3.927,3.927,0,1,1,7.816,3.909,3.941,3.941,0,0,1,3.908,7.854Zm28.635,24.7H25.809V21.971c0-2.521-.051-5.754-3.509-5.754-3.509,0-4.046,2.739-4.046,5.573V32.55H11.513V10.819h6.472v2.964h.094a7.091,7.091,0,0,1,6.385-3.509c6.83,0,8.085,4.5,8.085,10.339V32.55Z" transform="translate(223.621 15.476)" fill="#fff"/></g></svg>