<svg xmlns="http://www.w3.org/2000/svg" width="24" height="16" viewBox="0 0 24 16"><g transform="translate(-310 -357)"><g transform="translate(311.536 357)" fill="#fff" stroke="#575756" stroke-width="1.3"><rect width="20.927" height="7.682" rx="1" stroke="none"/><rect x="0.65" y="0.65" width="19.627" height="6.382" rx="0.35" fill="none"/></g><line y2="5.88" transform="translate(322.246 357.98)" fill="none" stroke="#575756" stroke-width="1.3"/><g transform="translate(310 363.782)" fill="#fff" stroke="#575756" stroke-width="1.3"><path d="M1,0H23a1,1,0,0,1,1,1V7.682a0,0,0,0,1,0,0H0a0,0,0,0,1,0,0V1A1,1,0,0,1,1,0Z" stroke="none"/><path d="M1,.65H23a.35.35,0,0,1,.35.35V6.382a.65.65,0,0,1-.65.65H1.3a.65.65,0,0,1-.65-.65V1A.35.35,0,0,1,1,.65Z" fill="none"/></g><g transform="translate(314.609 373) rotate(180)" fill="#fff"><path d="M1.536,0,3.073,1.536H0Z" stroke="none"/><path d="M 1.536411762237549 -4.053115844726562e-06 L 3.072821855545044 1.536416053771973 L 1.668930053710938e-06 1.536416053771973 L 1.536411762237549 -4.053115844726562e-06 Z" stroke="none" fill="#575756"/></g><g transform="translate(332.464 373) rotate(180)" fill="#fff"><path d="M1.536,0,3.073,1.536H0Z" stroke="none"/><path d="M 1.536411762237549 -4.053115844726562e-06 L 3.072821855545044 1.536416053771973 L 1.668930053710938e-06 1.536416053771973 L 1.536411762237549 -4.053115844726562e-06 Z" stroke="none" fill="#575756"/></g></g></svg>