<svg xmlns="http://www.w3.org/2000/svg" width="283.075" height="78.232" viewBox="0 0 283.075 78.232"><g transform="translate(-125.085 -127.989)"><g transform="translate(125.085 127.989)"><path d="M212.555,120.692v1.09q0,29.638.017,59.275c0,.748-.136,1-.946.983-3.2-.053-6.4-.036-9.6-.009-.6.005-.8-.147-.773-.762.049-1.179.039-2.363,0-3.543-.016-.5.146-.638.637-.629,1.559.029,3.119.011,4.678.011,1.087,0,1.087,0,1.087-1.127V104.946c0-1.122,0-1.122,1.09-1.122q12.947,0,25.893-.017c.684,0,.831.185.829.843-.025,7.3-.008,14.6-.03,21.906a1.127,1.127,0,0,0,.707,1.168c3.394,1.784,6.762,3.618,10.154,5.405a1.245,1.245,0,0,1,.78,1.281c-.023,13.906-.009,27.812-.037,41.718,0,.809.181,1.044,1,1,1.34-.077,2.688,0,4.032-.03.45-.008.61.118.6.584-.028,1.261-.023,2.524,0,3.785.006.424-.149.558-.564.556-3.2-.011-6.4-.007-9.6-.005a2.064,2.064,0,0,1-.982-.317q-10.971-5.839-21.949-11.665a.9.9,0,0,1-.6-.9q.028-17.275.016-34.55c0-.08.013-.159.022-.249.327-.041.553.184.8.316q10.729,5.694,21.451,11.4c.856.455.858.453.859-.528,0-2.792-.008-5.584.008-8.376a.912.912,0,0,0-.537-.949q-14.263-7.616-28.51-15.263C212.953,120.864,212.809,120.808,212.555,120.692Zm8.93-11.913c-2.739,0-5.479.014-8.219-.012-.551-.005-.738.131-.725.707.038,1.662.028,3.325,0,4.987a.838.838,0,0,0,.5.88q8.438,4.5,16.855,9.037c.53.286.66.224.658-.39q-.027-7.24.005-14.481c0-.633-.206-.746-.782-.74C227.018,108.795,224.251,108.779,221.485,108.779Zm2.523,48.008a2.8,2.8,0,0,0-.062.379c0,3.034.006,6.067-.014,9.1a.79.79,0,0,0,.534.784q8.491,4.506,16.969,9.038c.571.306.709.227.7-.419-.024-2.819-.028-5.638,0-8.457a1.118,1.118,0,0,0-.692-1.174c-4.984-2.621-9.952-5.273-14.924-7.915Zm-.065-14.364c0,2.883.007,5.617-.007,8.351,0,.421.275.538.558.689q8.478,4.511,16.951,9.031c.608.326.7.15.692-.446-.021-2.413-.032-4.828.008-7.241a1.057,1.057,0,0,0-.691-1.091c-3.273-1.718-6.533-3.462-9.8-5.2Z" transform="translate(-201.253 -103.808)" fill="#fff"/></g><g transform="translate(197.824 159.872)"><path d="M112.5,387.8h1.29a.637.637,0,0,0,.461-.184.616.616,0,0,0,.185-.444V385.73a.632.632,0,0,0-.646-.647H112.5a.669.669,0,0,0-.449.174.6.6,0,0,0-.216.473v1.437a.584.584,0,0,0,.215.453A.669.669,0,0,0,112.5,387.8Z" transform="translate(-107.065 -380.937)" fill="#fff"/><path d="M106.767,387.8h1.271a.709.709,0,0,0,.454-.17.578.578,0,0,0,.229-.458V385.73a.608.608,0,0,0-.215-.472.7.7,0,0,0-.469-.175h-1.271a.66.66,0,0,0-.465.18.619.619,0,0,0-.2.467v1.437a.6.6,0,0,0,.2.449A.661.661,0,0,0,106.767,387.8Z" transform="translate(-104.739 -380.937)" fill="#fff"/><path d="M136.474,401.216a3.657,3.657,0,0,0,.605-.109.841.841,0,0,0,.405-.307,1.131,1.131,0,0,0,.154-.408c.038-.336.059-.769.065-1.321q.01-.8.009-1.983v-1.714c0-.272,0-.559-.009-.861s-.015-.649-.029-1.066a.67.67,0,0,0-.168-.37.593.593,0,0,0-.459-.174H135.5a.585.585,0,0,0-.424.166.567.567,0,0,0-.167.413q.037,1.323.037,2.462v2.193a1.108,1.108,0,0,1-.036.332,1.217,1.217,0,0,1-.478.053H113.1a1.392,1.392,0,0,1-.761-.147c-.115-.076-.177-.291-.177-.606v-5.048a.583.583,0,0,0-.1-.355.667.667,0,0,0-.372-.209,6.733,6.733,0,0,0-1.213-.21c-.506-.05-1.006-.075-1.486-.075a5.386,5.386,0,0,0-3.849,1.269,4.691,4.691,0,0,0-1.33,3.542v.369a4.742,4.742,0,0,0,.312,1.8,3.426,3.426,0,0,0,.857,1.259,3.347,3.347,0,0,0,1.273.721,5.139,5.139,0,0,0,1.522.222h.24a4.445,4.445,0,0,0,1.329-.2,2.786,2.786,0,0,0,.873-.439,2,2,0,0,0,.886.663,4.536,4.536,0,0,0,1.648.255h21.28q.371,0,.815-.009c.3-.005.587-.018.867-.037S136.242,401.241,136.474,401.216Zm-29.9-4.865a1.737,1.737,0,0,1,.547-1.423,2.442,2.442,0,0,1,1.607-.473c.109,0,.264,0,.463.009l.2.008v3.242a.452.452,0,0,1-.239.434,1.752,1.752,0,0,1-.864.173h-.276a1.416,1.416,0,0,1-1.089-.371,2,2,0,0,1-.347-1.341Z" transform="translate(-103.808 -383.691)" fill="#fff"/><path d="M159.133,409.728h-1.2a.7.7,0,0,0-.468.174.607.607,0,0,0-.215.473v1.474a.568.568,0,0,0,.215.436.7.7,0,0,0,.468.174h1.2a.642.642,0,0,0,.448-.18.58.58,0,0,0,.2-.43v-1.474a.625.625,0,0,0-.2-.468A.643.643,0,0,0,159.133,409.728Z" transform="translate(-125.487 -390.935)" fill="#fff"/><path d="M153.515,409.728h-1.2a.632.632,0,0,0-.647.647v1.474a.6.6,0,0,0,.185.426.642.642,0,0,0,.461.184h1.2a.715.715,0,0,0,.455-.17.559.559,0,0,0,.229-.44v-1.474a.607.607,0,0,0-.215-.473A.7.7,0,0,0,153.515,409.728Z" transform="translate(-123.224 -390.935)" fill="#fff"/><path d="M167.083,393.7h-1.6a.586.586,0,0,0-.424.166.564.564,0,0,0-.168.407v8.586a1.937,1.937,0,0,1-.087.649.575.575,0,0,1-.209.289.882.882,0,0,1-.376.131,4.559,4.559,0,0,1-.6.035h-.184a.506.506,0,0,0-.573.518v1.345a.548.548,0,0,0,.5.569,3.323,3.323,0,0,0,.463.049c.157.007.28.01.368.01a5.193,5.193,0,0,0,1.771-.281,2.354,2.354,0,0,0,1.284-1.187,3.456,3.456,0,0,0,.355-1.24c.037-.412.056-.865.056-1.347v-8.125a.568.568,0,0,0-.573-.573Z" transform="translate(-127.763 -384.433)" fill="#fff"/><path d="M212.227,387.64h1.29a.63.63,0,0,0,.462-.185.619.619,0,0,0,.184-.443v-1.437a.641.641,0,0,0-.185-.462.63.63,0,0,0-.462-.184h-1.29a.674.674,0,0,0-.451.175.611.611,0,0,0-.214.471v1.437a.593.593,0,0,0,.215.454A.676.676,0,0,0,212.227,387.64Z" transform="translate(-147.518 -380.875)" fill="#fff"/><path d="M206.493,387.64h1.271a.7.7,0,0,0,.453-.169.58.58,0,0,0,.23-.459v-1.437a.608.608,0,0,0-.214-.471.693.693,0,0,0-.469-.175h-1.271a.66.66,0,0,0-.465.179.622.622,0,0,0-.2.467v1.437a.6.6,0,0,0,.2.449A.658.658,0,0,0,206.493,387.64Z" transform="translate(-145.192 -380.875)" fill="#fff"/><path d="M240.457,383.44H238.78a.581.581,0,0,0-.415.175.6.6,0,0,0-.176.434v10.668a1.309,1.309,0,0,1-.033.335,1.191,1.191,0,0,1-.463.05H226.87c.028-.04.055-.082.081-.126a3.544,3.544,0,0,0,.313-.7,5.065,5.065,0,0,0,.193-.783,4.818,4.818,0,0,0,.068-.794V392.3a4.2,4.2,0,0,0-.363-1.824,3.206,3.206,0,0,0-1.01-1.229,4.162,4.162,0,0,0-1.489-.664,7.443,7.443,0,0,0-2.943-.106,8.37,8.37,0,0,0-1.136.266,8.58,8.58,0,0,0-1.04.4,4.375,4.375,0,0,0-.865.516,2.769,2.769,0,0,0-.282.283.723.723,0,0,0-.162.393l-.033.907a1.066,1.066,0,0,0,0,.32.781.781,0,0,0,.087.3l1.264,3.244H200.219v-5.839a.629.629,0,0,0-.093-.356.648.648,0,0,0-.393-.23c-.163-.038-.366-.076-.6-.114s-.488-.072-.755-.1-.548-.053-.836-.066a8.48,8.48,0,0,0-2.829.259,4.543,4.543,0,0,0-1.579.824,3.673,3.673,0,0,0-1.029,1.372,4.632,4.632,0,0,0-.36,1.877v.35a4.431,4.431,0,0,0,.205,1.427,2.8,2.8,0,0,0,.285.6H178.292a1.279,1.279,0,0,1-.658-.124c-.035-.021-.151-.127-.151-.593V384.031a.617.617,0,0,0-.144-.4.553.553,0,0,0-.448-.191h-1.639a.6.6,0,0,0-.434.175.582.582,0,0,0-.176.416v11.055a4,4,0,0,0,.208,1.4,2.045,2.045,0,0,0,.623.887,2.217,2.217,0,0,0,.96.43,5.934,5.934,0,0,0,1.177.106h59.641q.37,0,.824-.009c.3-.005.6-.018.886-.037s.549-.04.792-.065a3.679,3.679,0,0,0,.625-.109.842.842,0,0,0,.405-.307,1.121,1.121,0,0,0,.154-.408c.037-.334.062-.709.075-1.114s.018-.769.018-1.1v-10.7a.619.619,0,0,0-.16-.427A.55.55,0,0,0,240.457,383.44Zm-15.7,9.214v.166a3.686,3.686,0,0,1-.1.842,2.359,2.359,0,0,1-.285.707,1.931,1.931,0,0,1-.472.521,1.422,1.422,0,0,1-.621.267h-.751l-1.515-3.83a2.571,2.571,0,0,1,.874-.315,6.39,6.39,0,0,1,.969-.089,2.148,2.148,0,0,1,1.422.417A1.644,1.644,0,0,1,224.757,392.654Zm-27.306-1.694v4.216h-1.177a1.661,1.661,0,0,1-1.349-.49,2.355,2.355,0,0,1-.419-1.517v-.332c0-1.306.626-1.914,1.97-1.914C196.82,390.924,197.146,390.937,197.451,390.96Z" transform="translate(-132.542 -380.271)" fill="#fff"/><path d="M292.612,383.44h-1.658a.57.57,0,0,0-.432.183.6.6,0,0,0-.159.408V397.3a.623.623,0,0,0,.153.411.552.552,0,0,0,.437.2h1.658a.555.555,0,0,0,.438-.2.624.624,0,0,0,.153-.411V384.031a.6.6,0,0,0-.16-.409A.572.572,0,0,0,292.612,383.44Z" transform="translate(-179.484 -380.271)" fill="#fff"/><path d="M378.107,394.182c-.007-.357-.016-.739-.028-1.139a.579.579,0,0,0-.151-.4.594.594,0,0,0-.459-.174H375.9a.538.538,0,0,0-.429.191.6.6,0,0,0-.144.388q.018.662.028,1.361t.008,1.379v2.469a1.616,1.616,0,0,1-.029.318,1.383,1.383,0,0,1-.485.048h-.424a5.27,5.27,0,0,1-.724-.052.541.541,0,0,1-.306-.122v-4.706a.554.554,0,0,0-.183-.414.6.6,0,0,0-.408-.159H371.26a.594.594,0,0,0-.409.16.548.548,0,0,0-.183.413v4.5a.3.3,0,0,1-.046.187.38.38,0,0,1-.153.116.864.864,0,0,1-.255.065,2.915,2.915,0,0,1-.317.017h-.277c-.082,0-.179,0-.291-.008a1.857,1.857,0,0,1-.3-.042,1.5,1.5,0,0,1-.273-.088.293.293,0,0,1-.068-.041v-4.039a.619.619,0,0,0-.161-.427.55.55,0,0,0-.413-.182h-1.565a.583.583,0,0,0-.416.175.6.6,0,0,0-.176.434v3.74c0,.227-.087.284-.181.312a2.173,2.173,0,0,1-.627.092H348.082q-.339,0-.657.02c-.067,0-.133.009-.2.017a4.263,4.263,0,0,0,.184-.507,5.625,5.625,0,0,0,.19-.965,3.288,3.288,0,0,0,.04-.544v-.506a4.721,4.721,0,0,0-.341-1.866,3.26,3.26,0,0,0-1-1.3,4.248,4.248,0,0,0-1.536-.731,10.908,10.908,0,0,0-3.407-.172,5.847,5.847,0,0,0-1.4.269,1.6,1.6,0,0,0-.513.27.723.723,0,0,0-.246.586v5.434H317.441a1.725,1.725,0,0,1-.269-.025,1.887,1.887,0,0,1-.305-.074.872.872,0,0,1-.237-.118.294.294,0,0,1-.084-.091,6.538,6.538,0,0,0,.049-.833v-1.161a4.207,4.207,0,0,0-1.148-3.2,4.4,4.4,0,0,0-3.129-1.074,4.513,4.513,0,0,0-3.163,1.1,4.165,4.165,0,0,0-1.2,3.213V397.3a6.112,6.112,0,0,0,.038.659c.013.118.029.223.048.319a2.316,2.316,0,0,0-1.473.714,2.961,2.961,0,0,0-.64,2.067v4.5a.569.569,0,0,0,.573.572h1.584a.589.589,0,0,0,.426-.166.562.562,0,0,0,.166-.406v-4.238c0-.334.081-.433.116-.459a.815.815,0,0,1,.464-.109,3.442,3.442,0,0,0,1.311.682,6.336,6.336,0,0,0,1.7.22,4.385,4.385,0,0,0,2.933-.859,3.1,3.1,0,0,0,1.107.431,6.95,6.95,0,0,0,1.3.133H339.2v.275a7.016,7.016,0,0,0,.22,1.846,3.42,3.42,0,0,0,.739,1.4,3.232,3.232,0,0,0,1.344.872,6.01,6.01,0,0,0,1.991.289c2.664,0,4.041-1.45,4.093-4.313v-.36c.059,0,.138-.007.247-.007h17.218a7.133,7.133,0,0,0,1.341-.133,2.968,2.968,0,0,0,1.111-.443,3.045,3.045,0,0,0,1.038.442,6.226,6.226,0,0,0,1.319.134h.24a5.731,5.731,0,0,0,1.293-.144,2.736,2.736,0,0,0,.981-.431,3.11,3.11,0,0,0,1.252.435,10.968,10.968,0,0,0,1.43.1h.239c.432,0,.84-.016,1.215-.048a5.054,5.054,0,0,0,1.007-.173.773.773,0,0,0,.407-.332,1.453,1.453,0,0,0,.135-.385c.037-.342.059-.72.065-1.126s.01-.764.01-1.109v-2q0-.472-.01-.953Zm-33.233,2.251a2.524,2.524,0,0,1-.45,1.585,2.016,2.016,0,0,1-1.649.551h-.808v-4.078c.1-.011.2-.021.291-.028q.233-.018.573-.018a2.711,2.711,0,0,1,1.533.376,1.541,1.541,0,0,1,.51,1.354Zm-2.926,4.914q.521-.02,1.038-.058a8,8,0,0,0,1.07-.143,5.582,5.582,0,0,0,.893-.256c-.005.06-.008.121-.011.184-.007.2-.015.369-.028.521a3.027,3.027,0,0,1-.332,1.481,1.234,1.234,0,0,1-1.1.411,1.369,1.369,0,0,1-1.19-.444,2.808,2.808,0,0,1-.337-1.565Zm-31.23-4.885a2.333,2.333,0,0,1,.373-1.474,1.5,1.5,0,0,1,1.21-.433,1.416,1.416,0,0,1,1.17.429,2.421,2.421,0,0,1,.357,1.478v.845a3.43,3.43,0,0,1-.093.876,1.082,1.082,0,0,1-.265.489,1.01,1.01,0,0,1-.463.255,2.88,2.88,0,0,1-.744.084,1.47,1.47,0,0,1-1.206-.409,2.352,2.352,0,0,1-.339-1.424Z" transform="translate(-185.796 -383.719)" fill="#fff"/><path d="M436.271,386.323h-1.6a.571.571,0,0,0-.433.183.623.623,0,0,0-.159.427v7.794a.626.626,0,0,0,.159.428.552.552,0,0,0,.414.182h1.621a.551.551,0,0,0,.414-.183.622.622,0,0,0,.16-.427v-7.794a.64.64,0,0,0-.144-.42A.537.537,0,0,0,436.271,386.323Z" transform="translate(-237.781 -381.44)" fill="#fff"/><path d="M433.634,382.091h2.837c.382,0,.518-.229.518-.444v-.553c0-.068-.025-.407-.518-.407h-1.222a.569.569,0,0,1-.143-.2,1.033,1.033,0,0,1-.089-.447.47.47,0,0,1,.132-.393.954.954,0,0,1,.567-.121h.645a.408.408,0,0,0,.462-.407v-.5a.394.394,0,0,0-.355-.4,2.238,2.238,0,0,0-.523-.1q-.26-.019-.413-.019c-1.707,0-2.065.963-2.065,1.771a2.372,2.372,0,0,0,.081.61,2.171,2.171,0,0,0,.071.217c-.466.007-.5.313-.5.407v.534C433.116,381.863,433.252,382.091,433.634,382.091Z" transform="translate(-237.391 -378.108)" fill="#fff"/><path d="M440.554,383.44h-1.676a.6.6,0,0,0-.591.591v10.687a1.436,1.436,0,0,1-.032.335,1.192,1.192,0,0,1-.464.05h-6.8a.58.58,0,0,0-.4.15.531.531,0,0,0-.174.4v1.7a.526.526,0,0,0,.174.4.579.579,0,0,0,.4.151h6.172q.39,0,.88-.009c.328-.005.645-.018.949-.037s.585-.04.846-.065a3.7,3.7,0,0,0,.654-.109.787.787,0,0,0,.4-.316,1.289,1.289,0,0,0,.14-.408q.037-.48.064-.99t.028-1.219V384.031a.6.6,0,0,0-.16-.409A.551.551,0,0,0,440.554,383.44Z" transform="translate(-236.297 -380.271)" fill="#fff"/><path d="M455.14,383.622a.57.57,0,0,0-.431-.182h-1.658a.57.57,0,0,0-.432.183.6.6,0,0,0-.159.408V397.3a.623.623,0,0,0,.153.411.555.555,0,0,0,.438.2h1.658a.555.555,0,0,0,.438-.2.624.624,0,0,0,.153-.411V384.031A.6.6,0,0,0,455.14,383.622Z" transform="translate(-245.238 -380.271)" fill="#fff"/></g><g transform="translate(198.925 186.165)"><path d="M113.215,431.078a3.91,3.91,0,0,0,2.415-3.87v-.166a4.361,4.361,0,0,0-.46-2.086,3.739,3.739,0,0,0-1.237-1.361,5.286,5.286,0,0,0-1.763-.722,14.92,14.92,0,0,0-4.052-.152c-.636.044-1.2.1-1.675.177a1.1,1.1,0,0,0-.54.2.677.677,0,0,0-.244.572v12.677a.6.6,0,0,0,.591.591h1.842a.554.554,0,0,0,.414-.183.6.6,0,0,0,.159-.408v-4.739l.557.033q.487.028.86.027h.125l2.587,4.779a2.541,2.541,0,0,0,.161.282.472.472,0,0,0,.407.209h2.248a.416.416,0,0,0,.444-.444.469.469,0,0,0-.064-.253Zm-.591-3.87a1.71,1.71,0,0,1-.568,1.494,3.568,3.568,0,0,1-1.973.42c-.072,0-.182,0-.331-.008l-.959-.037-.127,0v-3.725l.127-.007.922-.037c.149-.006.272-.009.368-.009a3.59,3.59,0,0,1,1.949.422,1.464,1.464,0,0,1,.592,1.326Z" transform="translate(-105.66 -422.471)" fill="#fff"/><path d="M137.835,429.619a3.926,3.926,0,0,0-1.452-1.026,5.121,5.121,0,0,0-1.97-.358,5.265,5.265,0,0,0-1.958.348,4,4,0,0,0-1.469,1,4.3,4.3,0,0,0-.9,1.554,6.2,6.2,0,0,0-.307,2.006V434.5a5.4,5.4,0,0,0,.455,2.354,4.125,4.125,0,0,0,2.685,2.275,5.948,5.948,0,0,0,1.542.219q.631,0,1.1-.019t.878-.056q.4-.037.794-.094c.262-.037.543-.087.828-.147a.62.62,0,0,0,.484-.256.875.875,0,0,0,.095-.443v-1.216a.453.453,0,0,0-.188-.395.631.631,0,0,0-.367-.1h-.076q-.587.054-1.478.119c-.588.042-1.224.064-1.891.064a2.28,2.28,0,0,1-1-.19,1.589,1.589,0,0,1-.6-.483,1.8,1.8,0,0,1-.3-.673,3.548,3.548,0,0,1-.082-.6h5.762c.138,0,.59-.049.59-.683v-1.032a6.2,6.2,0,0,0-.3-1.958A4.486,4.486,0,0,0,137.835,429.619Zm-5.158,3.056a2.054,2.054,0,0,1,.488-1.383,1.644,1.644,0,0,1,1.257-.511,1.573,1.573,0,0,1,1.235.516,2.112,2.112,0,0,1,.474,1.377Z" transform="translate(-115.443 -424.735)" fill="#fff"/><path d="M160.254,429.153a4.833,4.833,0,0,0-3.155-.918,15.433,15.433,0,0,0-1.767.093c-.537.063-.981.13-1.355.2a.594.594,0,0,0-.528.6V430.3a.479.479,0,0,0,.2.448.679.679,0,0,0,.353.086l.118,0c.3-.035.73-.069,1.275-.1s1.123-.046,1.7-.046a1.857,1.857,0,0,1,1.091.253,1.293,1.293,0,0,1,.307,1.029v.594h-.938a9.349,9.349,0,0,0-2.105.208,4.009,4.009,0,0,0-1.482.647,2.611,2.611,0,0,0-.865,1.087,3.776,3.776,0,0,0-.266,1.469v.074a3.746,3.746,0,0,0,.308,1.625,2.813,2.813,0,0,0,.8,1.019,2.78,2.78,0,0,0,1.11.521,5.429,5.429,0,0,0,1.192.134,4.417,4.417,0,0,0,1.378-.223,6.426,6.426,0,0,0,1-.432.6.6,0,0,0,.585.508h1.566a.6.6,0,0,0,.591-.591v-6.633A3.479,3.479,0,0,0,160.254,429.153Zm-1.756,7.388a4.5,4.5,0,0,1-.74.29,3.2,3.2,0,0,1-.928.138,1.585,1.585,0,0,1-.887-.188.951.951,0,0,1-.223-.731v-.074a2.326,2.326,0,0,1,.074-.621.743.743,0,0,1,.244-.378,1.386,1.386,0,0,1,.542-.25,4.135,4.135,0,0,1,.974-.095h.944Z" transform="translate(-124.799 -424.735)" fill="#fff"/><path d="M178.334,422.346H176.62a.6.6,0,0,0-.591.591V436.2a.6.6,0,0,0,.169.418.563.563,0,0,0,.422.192h1.714a.539.539,0,0,0,.42-.2.626.626,0,0,0,.153-.411V422.938a.6.6,0,0,0-.16-.41A.548.548,0,0,0,178.334,422.346Z" transform="translate(-134.205 -422.346)" fill="#fff"/><path d="M211.191,422.917l-.49-.083c-.183-.032-.409-.059-.681-.085s-.59-.047-.968-.066c-.354-.017-.789-.026-1.3-.027h-3.892a.707.707,0,0,0-.707.707v13.017a.707.707,0,0,0,.707.707h4.219l0,0q.561-.005.976-.026.567-.028.968-.066t.68-.084l.492-.083a.783.783,0,0,0,.392-.163.558.558,0,0,0,.159-.443v-1.18a.6.6,0,0,0-.591-.591h-3.759a1.363,1.363,0,0,1-.974-.264,1.392,1.392,0,0,1-.254-.913v-2.338h4.766a.6.6,0,0,0,.591-.591v-1.327a.6.6,0,0,0-.591-.591h-4.766v-1.951a1.392,1.392,0,0,1,.254-.914,1.364,1.364,0,0,1,.974-.264h3.759a.6.6,0,0,0,.591-.591v-1.18a.561.561,0,0,0-.159-.443A.794.794,0,0,0,211.191,422.917Z" transform="translate(-145.208 -422.471)" fill="#fff"/><path d="M232.939,434.753h0a3.458,3.458,0,0,0-.582-.748,5.2,5.2,0,0,0-.962-.731l-2.418-1.473a3.539,3.539,0,0,1-.51-.345.272.272,0,0,1-.115-.216.408.408,0,0,1,.191-.4,1.779,1.779,0,0,1,.857-.146c.253,0,.528.01.824.027l.875.055q.416.028.759.072c.237.032.425.053.582.066h.074a.506.506,0,0,0,.518-.574v-1.079a.633.633,0,0,0-.509-.646c-.235-.049-.47-.1-.706-.141s-.484-.084-.746-.121-.549-.066-.856-.086-.644-.029-1.018-.029c-2.471,0-3.724,1-3.724,2.981a2.818,2.818,0,0,0,.47,1.584,3.818,3.818,0,0,0,1.184,1.143l2.523,1.544a2.942,2.942,0,0,1,.579.439.444.444,0,0,1,.127.31,1.071,1.071,0,0,1-.038.289.351.351,0,0,1-.116.176.743.743,0,0,1-.3.136,2.66,2.66,0,0,1-.628.058c-.133,0-.326-.007-.58-.018s-.532-.027-.825-.046-.591-.04-.89-.064-.557-.049-.8-.074H226.1a.515.515,0,0,0-.4.166.52.52,0,0,0-.14.352v1.116a.629.629,0,0,0,.511.641,6.462,6.462,0,0,0,.878.184q.464.066.931.112c.31.031.6.053.868.066s.5.019.683.019a5.389,5.389,0,0,0,1.652-.232,3.508,3.508,0,0,0,1.211-.65,2.666,2.666,0,0,0,.732-.993,3.1,3.1,0,0,0,.238-1.217,4.7,4.7,0,0,0-.058-.733A2.364,2.364,0,0,0,232.939,434.753Z" transform="translate(-154.262 -424.735)" fill="#fff"/><path d="M251.407,435.61h-.985a1.953,1.953,0,0,1-.357-.023.1.1,0,0,1-.072-.043.46.46,0,0,1-.057-.21c-.012-.13-.017-.307-.017-.532v-5.562h1.45a.6.6,0,0,0,.594-.592V427.56a.579.579,0,0,0-.177-.416.585.585,0,0,0-.417-.175h-1.45v-1.674a.471.471,0,0,0-.515-.5l-1.829.3a.856.856,0,0,0-.344.175.521.521,0,0,0-.19.409v1.288h-1.509a.6.6,0,0,0-.591.591v.83a.516.516,0,0,0,.19.41.874.874,0,0,0,.369.18l1.542.229V434.8a5.879,5.879,0,0,0,.174,1.563,2.069,2.069,0,0,0,.582,1,2.1,2.1,0,0,0,1.018.476,7.267,7.267,0,0,0,1.378.115,5.194,5.194,0,0,0,.644-.039q.309-.037.645-.093a.548.548,0,0,0,.537-.552v-1.161C252.021,435.992,251.977,435.61,251.407,435.61Z" transform="translate(-162.159 -423.339)" fill="#fff"/><path d="M271.048,429.153a4.833,4.833,0,0,0-3.155-.918,15.436,15.436,0,0,0-1.767.093c-.538.063-.981.13-1.356.2a.594.594,0,0,0-.527.6V430.3a.479.479,0,0,0,.2.448.679.679,0,0,0,.353.086l.118,0c.3-.035.73-.069,1.275-.1s1.123-.046,1.7-.046a1.857,1.857,0,0,1,1.091.253,1.293,1.293,0,0,1,.307,1.029v.594h-.938a9.35,9.35,0,0,0-2.105.208,4.008,4.008,0,0,0-1.482.647,2.611,2.611,0,0,0-.865,1.087,3.779,3.779,0,0,0-.266,1.469v.074a3.746,3.746,0,0,0,.308,1.625,2.813,2.813,0,0,0,.8,1.019,2.781,2.781,0,0,0,1.11.521,5.429,5.429,0,0,0,1.192.134,4.416,4.416,0,0,0,1.378-.223,6.4,6.4,0,0,0,1-.432.586.586,0,0,0,.171.332.58.58,0,0,0,.416.175h1.566a.6.6,0,0,0,.591-.591v-6.633A3.479,3.479,0,0,0,271.048,429.153Zm-1.756,7.388a4.5,4.5,0,0,1-.74.29,3.2,3.2,0,0,1-.928.138,1.586,1.586,0,0,1-.887-.188.951.951,0,0,1-.223-.731v-.074a2.323,2.323,0,0,1,.074-.621.742.742,0,0,1,.244-.378,1.386,1.386,0,0,1,.542-.25,4.133,4.133,0,0,1,.974-.095h.944Z" transform="translate(-169.742 -424.735)" fill="#fff"/><path d="M290.87,435.61h-.985a1.954,1.954,0,0,1-.357-.023.1.1,0,0,1-.072-.043.462.462,0,0,1-.056-.21c-.012-.13-.017-.307-.017-.532v-5.562h1.45a.6.6,0,0,0,.594-.592V427.56a.6.6,0,0,0-.594-.591h-1.45v-1.674a.471.471,0,0,0-.515-.5l-1.829.3a.858.858,0,0,0-.345.175.52.52,0,0,0-.189.409v1.288H285a.6.6,0,0,0-.591.591v.83a.515.515,0,0,0,.19.41.872.872,0,0,0,.368.18l1.542.229V434.8a5.876,5.876,0,0,0,.174,1.563,2.068,2.068,0,0,0,.582,1,2.1,2.1,0,0,0,1.018.476,7.278,7.278,0,0,0,1.379.115,5.192,5.192,0,0,0,.644-.039c.206-.024.421-.055.645-.093a.548.548,0,0,0,.537-.552v-1.161C291.484,435.992,291.44,435.61,290.87,435.61Z" transform="translate(-178.168 -423.339)" fill="#fff"/><path d="M311.278,429.619a3.924,3.924,0,0,0-1.451-1.026,5.124,5.124,0,0,0-1.97-.358,5.265,5.265,0,0,0-1.958.348,4.01,4.01,0,0,0-1.469,1,4.311,4.311,0,0,0-.9,1.554,6.2,6.2,0,0,0-.307,2.006V434.5a5.4,5.4,0,0,0,.455,2.354,4.125,4.125,0,0,0,2.685,2.275,5.955,5.955,0,0,0,1.542.219q.631,0,1.106-.019t.877-.056c.267-.025.533-.056.794-.094s.543-.087.829-.147a.619.619,0,0,0,.484-.256.87.87,0,0,0,.094-.443v-1.216a.454.454,0,0,0-.187-.395.631.631,0,0,0-.367-.1h-.076c-.391.036-.885.076-1.479.119s-1.224.064-1.891.064a2.283,2.283,0,0,1-1-.19,1.593,1.593,0,0,1-.6-.483,1.788,1.788,0,0,1-.3-.673,3.424,3.424,0,0,1-.082-.6h5.761c.139,0,.59-.049.59-.683v-1.032a6.2,6.2,0,0,0-.3-1.958A4.485,4.485,0,0,0,311.278,429.619Zm-5.158,3.056a2.057,2.057,0,0,1,.488-1.383,1.645,1.645,0,0,1,1.258-.511,1.574,1.574,0,0,1,1.235.516,2.115,2.115,0,0,1,.474,1.377Z" transform="translate(-185.8 -424.735)" fill="#fff"/><path d="M348.192,430.887h0a4.244,4.244,0,0,0-.826-.944,7.744,7.744,0,0,0-1.291-.883l-2.213-1.236a8.039,8.039,0,0,1-.717-.43,2.487,2.487,0,0,1-.432-.363.892.892,0,0,1-.193-.307,1.094,1.094,0,0,1-.053-.344.923.923,0,0,1,.363-.79,2.322,2.322,0,0,1,1.349-.3c.588,0,1.192.015,1.794.045.587.03,1.2.077,1.813.137h.059a.51.51,0,0,0,.4-.166.569.569,0,0,0,.14-.388v-1.363a.511.511,0,0,0-.166-.4.77.77,0,0,0-.338-.171c-.165-.039-.386-.076-.665-.115s-.575-.074-.908-.111-.678-.065-1.026-.084a9.79,9.79,0,0,0-3.217.239,4,4,0,0,0-1.5.772,2.934,2.934,0,0,0-.847,1.206,4.243,4.243,0,0,0-.253,1.478,4.506,4.506,0,0,0,.106.979,3.165,3.165,0,0,0,.377.933,3.988,3.988,0,0,0,.7.85,6.579,6.579,0,0,0,1.1.8l2.432,1.456q.451.271.74.478a2.859,2.859,0,0,1,.444.383,1,1,0,0,1,.213.337,1.293,1.293,0,0,1,.061.415,1.391,1.391,0,0,1-.381,1.072,2.332,2.332,0,0,1-1.534.363q-.255,0-.682-.018t-.908-.046l-.93-.055c-.295-.018-.531-.038-.711-.063l-.067,0a.569.569,0,0,0-.573.573v1.326a.527.527,0,0,0,.174.4.8.8,0,0,0,.351.182,14.682,14.682,0,0,0,1.459.242,15.771,15.771,0,0,0,1.85.095,7.031,7.031,0,0,0,2.389-.355,4.423,4.423,0,0,0,1.57-.933,3.373,3.373,0,0,0,.858-1.322,4.469,4.469,0,0,0,.251-1.465,4.706,4.706,0,0,0-.126-1.1A3.537,3.537,0,0,0,348.192,430.887Z" transform="translate(-200.5 -422.472)" fill="#fff"/><path d="M367.13,435.61h-.985a1.945,1.945,0,0,1-.356-.023.1.1,0,0,1-.072-.043.447.447,0,0,1-.056-.21c-.012-.13-.017-.307-.017-.532v-5.562h1.45a.6.6,0,0,0,.594-.592V427.56a.6.6,0,0,0-.594-.591h-1.45v-1.674a.471.471,0,0,0-.516-.5l-1.829.3a.86.86,0,0,0-.344.175.52.52,0,0,0-.189.409v1.288h-1.509a.6.6,0,0,0-.591.591v.83a.515.515,0,0,0,.19.41.869.869,0,0,0,.368.18l1.542.229V434.8a5.851,5.851,0,0,0,.174,1.563,2.072,2.072,0,0,0,.581,1,2.1,2.1,0,0,0,1.018.476,7.277,7.277,0,0,0,1.379.115,5.192,5.192,0,0,0,.644-.039c.206-.024.421-.055.644-.093a.549.549,0,0,0,.538-.552v-1.161C367.744,435.992,367.7,435.61,367.13,435.61Z" transform="translate(-209.102 -423.339)" fill="#fff"/><path d="M387.242,429.617a4.139,4.139,0,0,0-1.451-1.013,5.581,5.581,0,0,0-3.989,0,4.126,4.126,0,0,0-1.45,1.013,4.3,4.3,0,0,0-.884,1.524,5.871,5.871,0,0,0-.3,1.9v1.493a5.87,5.87,0,0,0,.3,1.9,4.289,4.289,0,0,0,.884,1.524,4.127,4.127,0,0,0,1.45,1.014,5.593,5.593,0,0,0,3.989,0,4.14,4.14,0,0,0,1.45-1.014,4.3,4.3,0,0,0,.884-1.524,5.888,5.888,0,0,0,.3-1.9v-1.493a5.889,5.889,0,0,0-.3-1.9A4.3,4.3,0,0,0,387.242,429.617Zm-1.7,4.922a2.788,2.788,0,0,1-.454,1.682,1.73,1.73,0,0,1-2.589,0,2.787,2.787,0,0,1-.454-1.682v-1.493a2.787,2.787,0,0,1,.454-1.682,1.731,1.731,0,0,1,2.589,0,2.787,2.787,0,0,1,.454,1.682Z" transform="translate(-216.609 -424.735)" fill="#fff"/><path d="M409.122,428.482a6.278,6.278,0,0,0-.95-.172,12.7,12.7,0,0,0-1.482-.075,5.128,5.128,0,0,0-1.744.29,3.794,3.794,0,0,0-1.407.89,4.177,4.177,0,0,0-.935,1.478,5.693,5.693,0,0,0-.338,2.043v1.713a5.693,5.693,0,0,0,.338,2.043,4.178,4.178,0,0,0,.934,1.477,3.793,3.793,0,0,0,1.409.891,5.107,5.107,0,0,0,1.743.29,12.7,12.7,0,0,0,1.482-.075,6.181,6.181,0,0,0,.944-.17.719.719,0,0,0,.444-.244.755.755,0,0,0,.116-.452v-1.2a.455.455,0,0,0-.187-.395.631.631,0,0,0-.368-.105l-.085,0c-.182.025-.354.046-.511.065s-.314.03-.48.035l-.588.018c-.22.007-.475.01-.767.01a1.719,1.719,0,0,1-.571-.1,1.173,1.173,0,0,1-.473-.32,1.764,1.764,0,0,1-.357-.656,3.6,3.6,0,0,1-.145-1.118v-1.713a3.612,3.612,0,0,1,.145-1.119,1.782,1.782,0,0,1,.357-.655,1.171,1.171,0,0,1,.473-.32,3.659,3.659,0,0,1,1.338-.089l.588.019c.165.006.326.018.48.036s.329.039.512.064l.084,0a.632.632,0,0,0,.368-.1.454.454,0,0,0,.187-.395v-1.2a.757.757,0,0,0-.117-.453A.717.717,0,0,0,409.122,428.482Z" transform="translate(-225.977 -424.735)" fill="#fff"/><path d="M427.861,431.144l3.6-4.419a.515.515,0,0,0,.123-.323c0-.206-.131-.426-.5-.426h-2.064a.8.8,0,0,0-.292.062.681.681,0,0,0-.31.249l-2.749,3.666v-7.014a.6.6,0,0,0-.591-.591h-1.7a.6.6,0,0,0-.591.591V436.2a.6.6,0,0,0,.169.418.563.563,0,0,0,.422.192h1.7a.563.563,0,0,0,.422-.192.6.6,0,0,0,.169-.418v-3.466l2.488,3.614a1.533,1.533,0,0,0,.28.292.681.681,0,0,0,.436.17h2.248a.5.5,0,0,0,.332-.121.422.422,0,0,0,.149-.323.538.538,0,0,0-.1-.28Z" transform="translate(-234.302 -422.346)" fill="#fff"/><path d="M452.319,435.524a2.369,2.369,0,0,0-.273-.772,3.43,3.43,0,0,0-.581-.748,5.191,5.191,0,0,0-.962-.731l-2.418-1.473a3.5,3.5,0,0,1-.51-.345.272.272,0,0,1-.116-.216.408.408,0,0,1,.192-.4,1.773,1.773,0,0,1,.856-.146q.381,0,.824.027l.875.055q.415.028.759.072c.237.032.425.053.582.066h.074a.506.506,0,0,0,.518-.574v-1.079a.633.633,0,0,0-.509-.646c-.235-.049-.47-.1-.706-.141s-.484-.084-.745-.121-.549-.066-.857-.086-.644-.029-1.017-.029c-2.471,0-3.724,1-3.724,2.981a2.813,2.813,0,0,0,.47,1.584,3.807,3.807,0,0,0,1.185,1.143l2.523,1.544a2.953,2.953,0,0,1,.579.439.447.447,0,0,1,.126.31,1.08,1.08,0,0,1-.038.289.352.352,0,0,1-.115.176.75.75,0,0,1-.3.136,2.657,2.657,0,0,1-.628.058c-.133,0-.326-.007-.579-.018s-.532-.027-.826-.046-.59-.04-.889-.064-.558-.049-.8-.074h-.074a.521.521,0,0,0-.536.518v1.116a.629.629,0,0,0,.511.641,6.487,6.487,0,0,0,.879.184c.309.044.62.081.93.112s.6.053.868.066.5.019.683.019a5.391,5.391,0,0,0,1.652-.232,3.506,3.506,0,0,0,1.21-.65,2.655,2.655,0,0,0,.732-.993,3.1,3.1,0,0,0,.239-1.217A4.655,4.655,0,0,0,452.319,435.524Z" transform="translate(-243.142 -424.735)" fill="#fff"/></g></g></svg>