<svg xmlns="http://www.w3.org/2000/svg" width="58.505" height="58.504" viewBox="0 0 58.505 58.504"><g transform="translate(-235.812 -4237.748)"><ellipse cx="29.252" cy="29.252" rx="29.252" ry="29.252" transform="translate(235.812 4237.748)" fill="#777"/><path d="M14.97,7.29a7.673,7.673,0,1,0,7.673,7.673A7.66,7.66,0,0,0,14.97,7.29Zm0,12.661a4.988,4.988,0,1,1,4.988-4.988,5,5,0,0,1-4.988,4.988ZM24.746,6.976a1.79,1.79,0,1,1-1.79-1.79A1.785,1.785,0,0,1,24.746,6.976Zm5.082,1.816a8.856,8.856,0,0,0-2.417-6.27A8.915,8.915,0,0,0,21.14.105c-2.471-.14-9.876-.14-12.347,0a8.9,8.9,0,0,0-6.27,2.411A8.885,8.885,0,0,0,.105,8.786c-.14,2.471-.14,9.876,0,12.347A8.856,8.856,0,0,0,2.522,27.4a8.926,8.926,0,0,0,6.27,2.417c2.471.14,9.876.14,12.347,0A8.856,8.856,0,0,0,27.41,27.4a8.915,8.915,0,0,0,2.417-6.27c.14-2.471.14-9.87,0-12.34ZM26.635,23.784a5.05,5.05,0,0,1-2.845,2.845c-1.97.781-6.644.6-8.821.6s-6.858.174-8.821-.6A5.05,5.05,0,0,1,3.3,23.784c-.781-1.97-.6-6.644-.6-8.821s-.174-6.858.6-8.821A5.05,5.05,0,0,1,6.148,3.3c1.97-.781,6.644-.6,8.821-.6s6.858-.174,8.821.6a5.05,5.05,0,0,1,2.845,2.845c.781,1.97.6,6.644.6,8.821S27.417,21.821,26.635,23.784Z" transform="translate(249.896 4251.832)" fill="#fff"/></g></svg>