<svg xmlns="http://www.w3.org/2000/svg" width="99.5" height="79.5" viewBox="0 0 99.5 79.5"><g transform="translate(-1419.25 -2821.25)"><g transform="translate(-11 12)"><rect width="94" height="74" rx="15" transform="translate(1433 2812)" fill="none" stroke="#20926b" stroke-width="5.5"/><rect width="9" height="57" rx="4.5" transform="translate(1508 2821)" fill="none" stroke="#20926b" stroke-width="5.5"/><rect width="10" height="33" rx="5" transform="translate(1487 2844)" fill="none" stroke="#20926b" stroke-width="5.5"/><rect width="10" height="21" rx="5" transform="translate(1467 2856)" fill="none" stroke="#20926b" stroke-width="5.5"/><path d="M53.436,90.6V86.748c4.115-.673,6.322-3.479,6.322-6.659,0-3.33-1.871-5.35-6.06-6.921-3.18-1.272-4.527-2.132-4.527-3.666,0-1.272.935-2.619,3.554-2.619a11.12,11.12,0,0,1,5.088,1.272l1.01-3.442a11.963,11.963,0,0,0-5.163-1.235V60H50.593v3.666c-3.778.673-6.023,3.142-6.023,6.36,0,3.479,2.544,5.275,6.472,6.7,2.768,1.01,4.078,2.095,4.078,3.779,0,1.8-1.609,2.955-3.965,2.955a11.8,11.8,0,0,1-5.836-1.646l-1.01,3.517a12.517,12.517,0,0,0,6.06,1.646V90.6Z" transform="translate(1403.828 2760.613)" fill="#20926b"/></g></g></svg>