<svg xmlns="http://www.w3.org/2000/svg" width="47.518" height="47.518" viewBox="0 0 47.518 47.518"><g transform="translate(-1149.25 -449.16)"><g transform="translate(1149.25 449.16)"><ellipse cx="23.759" cy="23.759" rx="23.759" ry="23.759" transform="translate(0 0)" fill="#1da1f2"/><path d="M23.536,8.69c.017.233.017.466.017.7a15.192,15.192,0,0,1-15.3,15.3A15.193,15.193,0,0,1,0,22.272a11.122,11.122,0,0,0,1.3.067,10.767,10.767,0,0,0,6.675-2.3,5.386,5.386,0,0,1-5.027-3.728,6.78,6.78,0,0,0,1.015.083,5.686,5.686,0,0,0,1.415-.183,5.377,5.377,0,0,1-4.311-5.276v-.067a5.414,5.414,0,0,0,2.43.682,5.384,5.384,0,0,1-1.664-7.19A15.282,15.282,0,0,0,12.916,9.989a6.069,6.069,0,0,1-.133-1.232,5.381,5.381,0,0,1,9.3-3.678A10.585,10.585,0,0,0,25.5,3.78a5.362,5.362,0,0,1-2.364,2.963,10.778,10.778,0,0,0,3.1-.832,11.557,11.557,0,0,1-2.7,2.78Z" transform="translate(10.611 9.859)" fill="#fff"/></g></g></svg>