<svg xmlns="http://www.w3.org/2000/svg" width="58.505" height="58.504" viewBox="0 0 58.505 58.504"><g transform="translate(-328.264 -4237.748)"><ellipse cx="29.252" cy="29.252" rx="29.252" ry="29.252" transform="translate(328.264 4237.748)" fill="#777"/><path d="M6.12,27.342H.452V9.087H6.12ZM3.283,6.6A3.3,3.3,0,1,1,6.566,3.283,3.311,3.311,0,0,1,3.283,6.6ZM27.336,27.342H21.68V18.456c0-2.118-.043-4.834-2.947-4.834-2.947,0-3.4,2.3-3.4,4.681v9.039H9.671V9.087h5.437v2.49h.079a5.956,5.956,0,0,1,5.364-2.948c5.737,0,6.792,3.778,6.792,8.685V27.342Z" transform="translate(343.845 4250.749)" fill="#fff"/></g></svg>