<svg xmlns="http://www.w3.org/2000/svg" width="756.497" height="613.933" viewBox="0 0 756.497 613.933"><g transform="translate(-170 -233.968)"><g transform="translate(170 233.968)"><rect width="750.316" height="0.494" transform="translate(0 539.602)" fill="#ebebeb"/><rect width="42.028" height="0.494" transform="translate(478.291 550.809)" fill="#ebebeb"/><rect width="99.383" height="0.494" transform="translate(651.181 559.709)" fill="#ebebeb"/><rect width="102.679" height="0.494" transform="translate(366.712 550.974)" fill="#ebebeb"/><rect width="21.426" height="0.494" transform="translate(278.536 563.335)" fill="#ebebeb"/><rect width="97.9" height="0.494" transform="translate(320.893 563.335)" fill="#ebebeb"/><rect width="63.453" height="0.494" transform="translate(86.527 556.413)" fill="#ebebeb"/><path d="M365.851,521.095H47.594A9.5,9.5,0,0,1,38.2,511.7V64.394A9.5,9.5,0,0,1,47.594,55H365.851a9.5,9.5,0,0,1,9.394,9.394V511.7A9.39,9.39,0,0,1,365.851,521.095ZM47.594,55.33a9.038,9.038,0,0,0-9.065,9.065V511.7a9.038,9.038,0,0,0,9.065,9.065H365.851a9.038,9.038,0,0,0,9.065-9.065V64.394a9.038,9.038,0,0,0-9.065-9.065Z" transform="translate(24.759 -55)" fill="#ebebeb"/><path d="M582.151,521.095H263.894A9.5,9.5,0,0,1,254.5,511.7V64.394A9.5,9.5,0,0,1,263.894,55H582.151a9.5,9.5,0,0,1,9.394,9.394V511.7A9.39,9.39,0,0,1,582.151,521.095ZM263.894,55.33a9.038,9.038,0,0,0-9.065,9.065V511.7a9.038,9.038,0,0,0,9.065,9.065H582.151a9.038,9.038,0,0,0,9.065-9.065V64.394a9.038,9.038,0,0,0-9.065-9.065Z" transform="translate(164.952 -55)" fill="#ebebeb"/></g><g transform="translate(297.566 554.038)"><g transform="translate(79.276)"><path d="M241.694,325.839H132.257L125.5,249.2H234.937Z" transform="translate(-125.5 -249.2)" fill="#e6e6e6"/><path d="M245.029,325.839H135.593L129,249.2H238.437Z" transform="translate(-123.231 -249.2)" fill="#f0f0f0"/><path d="M143.526,302.876,139.9,259.2h76.474L220,302.876Z" transform="translate(-116.167 -242.719)" fill="#fff"/></g><g transform="translate(0 76.484)"><rect width="12.856" height="142.894" transform="translate(207.171 0.155)" fill="#e6e6e6"/><rect width="8.9" height="142.894" transform="translate(215.083 0.155)" fill="#f0f0f0"/><rect width="124.27" height="15.822" transform="translate(224.127 15.822) rotate(180)" fill="#f0f0f0"/><rect width="12.856" height="127.237" transform="translate(91.307 15.812)" fill="#e6e6e6"/><rect width="8.9" height="127.237" transform="translate(99.383 15.812)" fill="#f0f0f0"/><rect width="12.856" height="127.237" transform="translate(0 15.812)" fill="#e6e6e6"/><rect width="8.9" height="127.237" transform="translate(7.911 15.812)" fill="#f0f0f0"/><rect width="12.856" height="127.237" transform="translate(125.918 15.812)" fill="#e6e6e6"/><rect width="8.9" height="127.237" transform="translate(133.829 15.812)" fill="#f0f0f0"/><rect width="99.877" height="15.822" transform="translate(0 0.155)" fill="#e6e6e6"/></g></g><g transform="translate(383.435 274.183)"><rect width="386.16" height="215.083" fill="#e0e0e0"/><rect width="405.443" height="215.083" transform="translate(1.978)" fill="#f5f5f5"/><rect width="201.733" height="392.258" transform="translate(400.73 6.662) rotate(90)" fill="#fff"/><path d="M279.192,285.133l74-201.733H230.9l-74,201.733Z" transform="translate(-111.741 -76.807)" fill="#f5f5f5"/><path d="M338.631,285.133,412.8,83.4H320.5l-74,201.733Z" transform="translate(-53.667 -76.807)" fill="#f5f5f5"/></g><g transform="translate(556.49 568.212)"><rect width="32.798" height="205.359" transform="translate(302.764)" fill="#e6e6e6"/><path d="M436.465,388.622h8.57V372.8H427.4Z" transform="translate(-109.473 -183.264)" fill="#fafafa"/><rect width="32.798" height="205.359" fill="#e6e6e6"/><rect width="310.18" height="201.073" transform="translate(25.381)" fill="#fafafa"/><path d="M551.878,319.561H253.4V262.7H551.878Zm-296.83-1.648H550.23V264.348H255.048Z" transform="translate(-222.25 -254.624)" fill="#e6e6e6"/><path d="M485.792,287.437H298.068c-8.735,0-17.141-7.087-23.074-19.283L274.5,267H509.36l-.494,1.154C502.768,280.515,494.527,287.437,485.792,287.437ZM277.137,268.648c5.6,10.878,13.185,17.141,20.931,17.141H485.627c7.746,0,15.328-6.263,20.931-17.141Z" transform="translate(-208.574 -251.837)" fill="#e6e6e6"/><path d="M258.47,388.622H249.9V372.8h17.635Z" transform="translate(-224.518 -183.264)" fill="#fafafa"/><path d="M551.878,358.361H253.4V301.5H551.878Zm-296.83-1.648H550.23V303.148H255.048Z" transform="translate(-222.25 -229.476)" fill="#e6e6e6"/><path d="M485.792,326.337H298.068c-8.735,0-17.141-7.087-23.074-19.283L274.5,305.9H509.36l-.494,1.154C502.768,319.25,494.527,326.337,485.792,326.337ZM277.137,307.548c5.6,10.878,13.185,17.141,20.931,17.141H485.627c7.746,0,15.328-6.263,20.931-17.141Z" transform="translate(-208.574 -226.624)" fill="#e6e6e6"/><path d="M551.878,397.261H253.4V340.4H551.878Zm-296.83-1.648H550.23V342.048H255.048Z" transform="translate(-222.25 -204.263)" fill="#e6e6e6"/><path d="M485.792,365.237H298.068c-8.735,0-17.141-7.087-23.074-19.283L274.5,344.8H509.36l-.494,1.154C502.768,358.15,494.527,365.237,485.792,365.237ZM277.137,346.448c5.6,10.878,13.185,17.141,20.931,17.141H485.627c7.746,0,15.328-6.263,20.931-17.141Z" transform="translate(-208.574 -201.411)" fill="#e6e6e6"/></g><g transform="translate(259.659 481.849)" opacity="0.4"><path d="M136.879,274.3v3.956h-2.637l-1.978,31.315h-31.15l-2.143-31.315H96.5V274.3Z" transform="translate(-27.113 -160.743)" fill="#38435b"/><path d="M153.948,241.329c-2.472-18.624-27.689-23.9-59.5-24.557C64.124,216.113,54.4,205.4,54.4,205.4s.165,43.511,43.841,59.168C139.609,279.566,156.42,259.953,153.948,241.329Z" transform="translate(-54.4 -205.4)" fill="#38435b"/><path d="M105.432,261.355c.494-7.582,12.691-21.755,42.192-15.328,21.261,4.615,29.172-6.428,29.172-6.428s-1.978,31.15-33.952,40.544C112.354,289.044,104.443,274.87,105.432,261.355Z" transform="translate(-21.376 -183.234)" fill="#38435b"/><path d="M112.816,318.3a1.259,1.259,0,0,0,.824-.33c2.143-2.472.33-8.57-1.978-16.976-3.131-10.713-6.922-24.063-3.626-33.787a157.775,157.775,0,0,1,6.263-15c4.615-9.724,8.57-18.13,5.274-27.03-.165-.659-.824-.824-1.483-.659s-.824.824-.659,1.483c2.967,7.911-.659,15.493-5.274,25.217a119.872,119.872,0,0,0-6.428,15.163c-3.461,10.383.494,24.063,3.626,35.105,1.813,6.428,3.791,13.185,2.472,14.833a1.268,1.268,0,0,0,.165,1.648C112.156,318.3,112.486,318.3,112.816,318.3Z" transform="translate(-22.003 -193.044)" fill="#38435b"/></g><ellipse cx="319.575" cy="18.624" rx="319.575" ry="18.624" transform="translate(262.461 810.654)" fill="#38435b" opacity="0.3"/><path d="M347.092,508.971H113.055L100.2,132.7H334.236Z" transform="translate(234.944 229.329)" fill="#20926b"/><path d="M354.027,502.036H119.991L107.3,125.6H341.336Z" transform="translate(239.546 224.727)" fill="#9de7bf"/><path d="M354.027,502.036H119.991L107.3,125.6H341.336Z" transform="translate(239.546 224.727)" fill="#20926b" opacity="0.5"/><ellipse cx="64.772" cy="66.915" rx="64.772" ry="66.915" transform="translate(374.383 457.56) rotate(-45.486)" fill="#20926b"/><path d="M256.224,212.489a54.194,54.194,0,0,1-5.6,25.876,52.115,52.115,0,0,1-46.807,28.513,56.6,56.6,0,0,1-48.785-28.513,55.524,55.524,0,0,1-7.417-25.876A52.182,52.182,0,0,1,200.023,158.1C230.019,158.1,255.071,182.492,256.224,212.489Z" transform="translate(265.654 245.792)" fill="#fff"/><path d="M247.592,212.5a52.115,52.115,0,0,1-46.807,28.513A56.6,56.6,0,0,1,152,212.5,84.052,84.052,0,0,1,199.3,198,87.187,87.187,0,0,1,247.592,212.5Z" transform="translate(268.518 271.653)" fill="#20926b" opacity="0.6"/><ellipse cx="23.733" cy="24.557" rx="23.733" ry="24.557" transform="translate(432.688 439.391) rotate(-45.486)" fill="#20926b" opacity="0.6"/><path d="M287.611,282.967H138.289L137.3,253.3H286.622Z" transform="translate(258.99 307.495)" fill="#fff"/><path d="M288.711,315.067H139.389L138.4,285.4H287.722Z" transform="translate(259.703 328.3)" fill="#fff"/><path d="M209.7,287.907l-35.93,4.945a2.412,2.412,0,0,0-2.143,2.967l4.78,24.063a2.884,2.884,0,0,0,3.131,2.307l35.93-4.944a2.412,2.412,0,0,0,2.143-2.967l-4.78-24.063A2.885,2.885,0,0,0,209.7,287.907ZM199.314,312.3l-6.593.824-.659-7.746a4.46,4.46,0,0,1-2.637-3.3,4.185,4.185,0,0,1,3.626-4.944,4.763,4.763,0,0,1,5.274,3.626,3.727,3.727,0,0,1-1.319,3.791Z" transform="translate(281.196 329.914)" fill="#20926b"/><path d="M205.594,294.914h0a2.44,2.44,0,0,1-2.8-1.978l-.494-2.307a13.739,13.739,0,0,0-14.174-10.878A11.615,11.615,0,0,0,177.41,293.6l.494,2.637a2.178,2.178,0,0,1-1.978,2.637h0a2.44,2.44,0,0,1-2.8-1.978l-.494-2.307A16.091,16.091,0,0,1,185.816,275.3c9.724-1.648,19.283,4.779,21.1,14.339l.494,2.637A2.074,2.074,0,0,1,205.594,294.914Z" transform="translate(281.674 321.588)" fill="#20926b"/><path d="M253.2,336.183h-97.24L155.3,316.9h97.24Z" transform="translate(270.657 348.717)" fill="#20926b"/><path d="M190.481,264.439a5.244,5.244,0,0,1-5.274,5.439,5.747,5.747,0,0,1-5.6-5.439A5.244,5.244,0,0,1,184.877,259,5.521,5.521,0,0,1,190.481,264.439Z" transform="translate(286.403 311.19)" fill="#6ac59e"/><path d="M176.281,264.439a5.244,5.244,0,0,1-5.274,5.439,5.747,5.747,0,0,1-5.6-5.439A5.244,5.244,0,0,1,170.677,259,5.521,5.521,0,0,1,176.281,264.439Z" transform="translate(277.2 311.19)" fill="#6ac59e"/><path d="M162.181,264.439a5.244,5.244,0,0,1-5.274,5.439,5.747,5.747,0,0,1-5.6-5.439A5.244,5.244,0,0,1,156.577,259,5.628,5.628,0,0,1,162.181,264.439Z" transform="translate(268.061 311.19)" fill="#6ac59e"/><path d="M204.681,264.439a5.244,5.244,0,0,1-5.274,5.439,5.747,5.747,0,0,1-5.6-5.439A5.244,5.244,0,0,1,199.077,259,5.628,5.628,0,0,1,204.681,264.439Z" transform="translate(295.607 311.19)" fill="#6ac59e"/><path d="M218.881,264.439a5.244,5.244,0,0,1-5.274,5.439,5.747,5.747,0,0,1-5.6-5.439A5.244,5.244,0,0,1,213.277,259,5.628,5.628,0,0,1,218.881,264.439Z" transform="translate(304.811 311.19)" fill="#6ac59e"/><path d="M339.863,174.3c2.143,3.461,3.956,6.922,5.933,10.383,1.813,3.461,3.626,7.087,5.274,10.713a147.807,147.807,0,0,1,8.406,22.58c.33.989.494,1.978.824,2.967l.33,1.483.165.824.165,1.319a23.834,23.834,0,0,1-.494,8.57,52.5,52.5,0,0,1-5.109,12.361,99.245,99.245,0,0,1-14.669,19.283l-6.922-5.274a177.308,177.308,0,0,0,9.23-19.778,48.557,48.557,0,0,0,2.472-9.23,7.6,7.6,0,0,0-.165-2.967l-.659-1.978c-.33-.824-.494-1.648-.824-2.472a174.57,174.57,0,0,0-8.735-19.943c-3.3-6.593-6.757-13.185-10.383-19.448Z" transform="translate(380.452 256.292)" fill="#ff8b7b"/><path d="M334.181,224.4l-7.581,3.956,8.735,10.218s5.439-3.626,5.6-9.23Z" transform="translate(381.684 288.764)" fill="#ff8b7b"/><path d="M320.5,233.163l9.23,7.417,9.559-3.626L330.554,226.9Z" transform="translate(377.73 290.384)" fill="#ff8b7b"/><path d="M302.124,142.313a1.579,1.579,0,0,1-1.483,1.483,1.475,1.475,0,0,1-.824-1.813A1.579,1.579,0,0,1,301.3,140.5C301.959,140.5,302.289,141.324,302.124,142.313Z" transform="translate(364.297 234.385)" fill="#263238"/><path d="M303.033,142.5s-3.131,4.944-5.933,6.922c1.318,1.813,4.285,1.648,4.285,1.648Z" transform="translate(362.563 235.681)" fill="#ff5652"/><path d="M298.9,166.378V155.5l14.339,1.648s-.165,9.23-8.241,12.031Z" transform="translate(363.73 244.107)" fill="#ff8b7b"/><path d="M303.02,150.9l10.054,2.8.165,6.593L298.9,158.646Z" transform="translate(363.73 241.125)" fill="#ff8b7b"/><path d="M312.231,153.767,302.178,150.8l-1.978,3.791a16.053,16.053,0,0,0,9.23,14.009,15.975,15.975,0,0,0,2.967-8.241Z" transform="translate(364.573 241.061)" opacity="0.2"/><path d="M305.68,140.019c.165,0,.33,0,.33-.165a.736.736,0,0,0,0-.824,5.264,5.264,0,0,0-4.615-1.813c-.33,0-.494.33-.494.659s.33.494.659.494h0a4.263,4.263,0,0,1,3.626,1.483A.605.605,0,0,0,305.68,140.019Z" transform="translate(365.026 232.228)" fill="#263238"/><path d="M326.639,151.7c-1.648,8.405-2.637,20.272,3.3,25.876,0,0-2.307,8.57-18.13,8.57-17.305,0-8.405-7.582-8.405-7.582,7.252-2.307,7.087-10.383,5.439-16.976Z" transform="translate(365.164 241.644)" fill="#ff8b7b"/><path d="M332.815,175.486c1.483-2.143,1.483-9.065-.165-10.383-2.637-1.978-14.009-2.472-29.337,1.154,1.648,6.757-1.813,10.218-1.813,10.218Z" transform="translate(365.415 249.338)" fill="#d2d2d2"/><path d="M353.114,409.2a3.58,3.58,0,0,1-2.967-.165,1.423,1.423,0,0,1-.33-1.318,1.645,1.645,0,0,1,.659-.824c1.483-.824,5.109.659,5.274.824a.161.161,0,0,1,.165.165c0,.165,0,.165-.165.33A5.836,5.836,0,0,1,353.114,409.2Zm-1.813-1.813c-.165,0-.165,0-.33.165l-.494.494c-.165.494,0,.659.165.659.659.494,2.967,0,4.615-.659A11.7,11.7,0,0,0,351.3,407.392Z" transform="translate(396.703 406.888)" fill="#20926b"/><path d="M355.185,409.493h0c-1.483-.33-4.285-2.307-4.285-3.626a.771.771,0,0,1,.659-.824,1.015,1.015,0,0,1,1.154.165c1.483.824,2.472,3.956,2.637,4.12l-.165.165Zm-3.3-4.12h0c-.495.165-.495.33-.495.33,0,.824,1.813,2.307,3.3,2.967-.33-.989-1.154-2.8-2.143-3.3Z" transform="translate(397.434 405.776)" fill="#20926b"/><path d="M301.336,410.464c-1.483,0-2.967-.165-3.461-.824a.957.957,0,0,1,0-1.154,1.646,1.646,0,0,1,.824-.659c1.978-.494,5.933,1.813,6.1,1.813s.165.165.165.33a.161.161,0,0,1-.165.165A17.49,17.49,0,0,1,301.336,410.464Zm-1.978-2.142h-.494c-.33,0-.494.165-.494.33-.165.33-.165.494,0,.659.494.824,3.461.824,5.6.494A10.886,10.886,0,0,0,299.358,408.322Z" transform="translate(362.942 407.606)" fill="#20926b"/><path d="M303.623,411.274h0c-1.483-.659-4.285-3.131-4.12-4.45,0-.33.33-.659.989-.824a2.3,2.3,0,0,1,1.483.494c1.483,1.154,1.813,4.285,1.813,4.45.165.165,0,.33-.165.33Zm-2.8-4.615h-.165c-.494,0-.494.165-.494.33-.165.824,1.813,2.8,3.132,3.626-.165-.989-.495-2.8-1.483-3.626A1.211,1.211,0,0,0,300.821,406.659Z" transform="translate(364.116 406.467)" fill="#20926b"/><path d="M314.691,419.665H303.154L302,392.8h11.537Z" transform="translate(365.739 397.911)" fill="#ff8b7b"/><path d="M370.179,415.652l-11.207,2.472L347.6,393.072l11.207-2.472Z" transform="translate(395.295 396.485)" fill="#ff8b7b"/><path d="M360.23,407.719l12.691-2.8a1,1,0,0,1,1.154.494l4.45,9.559a1.626,1.626,0,0,1-1.154,2.307c-4.45.824-6.757,1.154-12.2,2.307-3.461.824-11.207,2.637-15.987,3.626-4.615.989-6.428-3.461-4.615-4.45,8.241-3.791,11.867-7.087,14.009-10.219A3.865,3.865,0,0,1,360.23,407.719Z" transform="translate(392.883 405.736)" fill="#20926b"/><path d="M313.742,408.2h12.691a1.045,1.045,0,0,1,.989.824l2.307,10.383a1.787,1.787,0,0,1-1.648,2.142c-4.615,0-11.207-.33-16.976-.33-6.757,0-12.526.33-20.437.33-4.78,0-6.1-4.78-4.12-5.274,9.065-1.978,16.481-2.143,24.392-7.087A6.389,6.389,0,0,1,313.742,408.2Z" transform="translate(355.15 407.892)" fill="#20926b"/><g transform="translate(701.224 421.525)"><path d="M336.958,169.13c10.878,2.472,19.778,30.161,19.778,30.161L334.98,215.938s-8.076-7.581-11.537-21.426C319.652,180.008,325.75,166.493,336.958,169.13Z" transform="translate(-322.317 -168.799)" fill="#20926b"/><path d="M336.958,169.13c10.878,2.472,19.778,30.161,19.778,30.161L334.98,215.938s-8.076-7.581-11.537-21.426C319.652,180.008,325.75,166.493,336.958,169.13Z" transform="translate(-322.317 -168.799)" fill="#20926b" opacity="0.4"/></g><path d="M309.556,208.544c-2.637,2.967-5.439,5.6-8.241,8.241-1.319,1.319-2.8,2.637-4.285,3.956l-2.143,1.978-.494.494a4.37,4.37,0,0,0-.989.824,11.974,11.974,0,0,1-3.131,1.813,9.486,9.486,0,0,1-3.956.824,9.156,9.156,0,0,1-3.461-.659,9.524,9.524,0,0,1-3.3-2.143,11.829,11.829,0,0,1-2.637-4.285,21.594,21.594,0,0,1-.494-2.472,17.552,17.552,0,0,1,0-2.967,8.347,8.347,0,0,1,.33-2.143,34.528,34.528,0,0,1,1.978-6.593c.824-1.978,1.648-3.956,2.637-5.933a42.769,42.769,0,0,1,3.132-5.439,144.327,144.327,0,0,1,14.009-18.954A120.244,120.244,0,0,1,315.49,159.1l6.1,6.263c-4.285,5.768-8.406,11.867-12.361,17.8-3.791,6.1-7.417,12.2-10.548,18.459-.659,1.483-1.648,3.3-2.143,4.615a23.51,23.51,0,0,0-1.483,4.45,24.5,24.5,0,0,0-.989,4.12v.494a4.349,4.349,0,0,0-.165-1.154,7.655,7.655,0,0,0-4.615-4.78,10.042,10.042,0,0,0-2.8-.494,6.562,6.562,0,0,0-2.637.494c-.824.33-.824.494-.824.33l.659-.494,1.978-1.813,3.956-3.626c2.637-2.472,5.274-5.109,7.746-7.581Z" transform="translate(349.118 246.44)" fill="#ff8b7b"/><path d="M327.38,181.4c5.933,5.769,7.746,16.481,8.241,25.711l-.989.824s-8.076-7.581-11.537-21.426c-.165-.824-.33-1.813-.495-2.637Z" transform="translate(379.091 260.894)" opacity="0.2"/><path d="M290.263,181.788c-2.307,12.526-3.791,38.237,2.967,89.165h62.135c.494-9.559-5.6-55.872,3.626-100.866a159.047,159.047,0,0,0-20.767-2.637c-7.911-.33-19.448-.659-26.37,0-2.967.33-5.768.659-8.241,1.154A16.914,16.914,0,0,0,290.263,181.788Z" transform="translate(356.875 251.605)" fill="#38e269"/><path d="M290.263,181.788c-2.307,12.526-3.791,38.237,2.967,89.165h62.135c.494-9.559-5.6-55.872,3.626-100.866a159.047,159.047,0,0,0-20.767-2.637c-7.911-.33-19.448-.659-26.37,0-2.967.33-5.768.659-8.241,1.154A16.914,16.914,0,0,0,290.263,181.788Z" transform="translate(356.875 251.605)" fill="#20926b"/><path d="M299.8,188.337,288.59,185.7c-.33,6.757-.33,15.163.165,25.546C293.864,205.313,300.457,196.248,299.8,188.337Z" transform="translate(356.899 263.681)" opacity="0.2"/><g transform="translate(667.739 787.085)"><path d="M302,392.8l.659,13.844H314.2l-.659-13.844Z" transform="translate(-302 -389.174)" opacity="0.2"/><path d="M358.972,390.6,347.6,393.072l5.768,12.855,11.372-2.307Z" transform="translate(-272.445 -390.6)" opacity="0.2"/></g><path d="M333.517,152.037c-2.967,11.043-4.12,17.8-11.043,22.415-10.383,6.922-23.239-.989-23.568-12.856-.33-10.548,4.615-27.03,16.481-29.172C327.254,130.117,336.484,140.83,333.517,152.037Z" transform="translate(363.724 228.946)" fill="#ff8b7b"/><path d="M304.769,151.232c-.494-1.483-3.131-13.02-.659-15.987s29.831-.824,33.952,3.132c6.757,6.593,2.143,12.526-5.274,20.107-5.6,5.769-5.769,12.2-8.57,13.185-4.944,1.648-12.526.165-14.009-5.109C308.725,161.451,304.769,151.232,304.769,151.232Z" transform="translate(366.431 230.08)" fill="#707070"/><path d="M337.152,129.478c-9.724-4.12-27.854.494-37.742-1.978-.33,5.109,2.637,13.185,12.526,15.493,0,0,14.009,2.637,24.722,2.307C347.37,144.805,345.393,132.939,337.152,129.478Z" transform="translate(364.045 225.959)" fill="#707070"/><path d="M323.2,137.678s5.933.659,10.218-1.978C335.231,139.985,325.342,141.3,323.2,137.678Z" transform="translate(379.48 231.274)" fill="#707070"/><path d="M310.927,146.591a13.8,13.8,0,0,1-3.3,7.746c-2.472,2.8-5.109.989-5.6-2.307-.33-3.131.494-8.241,3.461-9.724C308.619,140.658,311.091,143.13,310.927,146.591Z" transform="translate(365.712 235.216)" fill="#ff8b7b"/><path d="M304.7,230.1s13.185,88.67,20.437,121.8c7.911,36.424,50.268,156.574,50.268,156.574l20.767-4.45s-29.667-98.064-36.259-148.827C354.8,316.133,344.75,230.1,344.75,230.1Z" transform="translate(367.489 292.458)" fill="#38435b"/><path d="M344.6,396.615c-.165,0,3.791,7.581,3.791,7.581l23.4-5.109L369.818,392Z" transform="translate(393.348 397.393)" fill="#a3a3a3"/><path d="M311.061,249.367c15.163,2.967,13.68,59.663,11.7,88.835-4.45-20.6-10.878-60.322-15.163-88.505A5.064,5.064,0,0,1,311.061,249.367Z" transform="translate(369.369 304.835)" opacity="0.3"/><path d="M291.631,230.1s-1.648,86.692-.33,121.963c1.318,36.754,14.174,157.233,14.174,157.233h19.613s.659-118.172,1.648-154.431C327.725,315.474,332.5,230.1,332.5,230.1H291.631Z" transform="translate(358.474 292.458)" fill="#38435b"/><path d="M297.406,394.8c-.165,0,1.154,8.076,1.154,8.076h23.9l.659-7.252Z" transform="translate(362.752 399.207)" fill="#a3a3a3"/><g transform="translate(630.326 420.4)"><path d="M320.5,184.9c5.6,15-27.03,32.633-27.03,32.633L279.3,199.4s9.394-18.789,20.931-27.194C314.57,161.662,316.218,173.528,320.5,184.9Z" transform="translate(-279.3 -168.116)" fill="#20926b"/><path d="M320.5,184.9c5.6,15-27.03,32.633-27.03,32.633L279.3,199.4s9.394-18.789,20.931-27.194C314.57,161.662,316.218,173.528,320.5,184.9Z" transform="translate(-279.3 -168.116)" fill="#20926b" opacity="0.4"/></g><ellipse cx="59.498" cy="37.907" rx="59.498" ry="37.907" transform="translate(739.928 247.648)" fill="#20926b"/><path d="M375.373,111.11a16.279,16.279,0,0,1-9.394-2.967,16.818,16.818,0,0,1-7.087-10.878,17,17,0,0,1,12.691-19.118h0a16.4,16.4,0,0,1,17.8,7.417l38.237-7.911a5.758,5.758,0,0,1,6.922,4.12,6.007,6.007,0,0,1-.659,4.45,5.782,5.782,0,0,1-3.791,2.637l-.989.165c-.33,0-.494.165-.659.494a.749.749,0,0,0,0,.824l.659,1.813a2.592,2.592,0,0,1-.989,3.131A3.205,3.205,0,0,0,426.63,97.6a2.658,2.658,0,0,1-1.978,2.307l-.824.165a2.916,2.916,0,0,1-2.8-1.319,3.114,3.114,0,0,0-3.461-1.483,3.162,3.162,0,0,0-2.472,2.8,2.658,2.658,0,0,1-1.978,2.307l-.824.165a2.916,2.916,0,0,1-2.8-1.319,2.791,2.791,0,0,0-2.307-1.483,2.633,2.633,0,0,1-2.143-2.472V95.453c0-.33-.165-.494-.33-.824a.725.725,0,0,0-.824-.165l-12.2,2.472a16.678,16.678,0,0,1-16.317,14.174Zm-3.3-31.315C364.5,81.609,359.221,89.19,360.7,96.936a14.982,14.982,0,0,0,29.667-.824v-.659l13.35-2.8a2.377,2.377,0,0,1,2.143.494,2.349,2.349,0,0,1,.989,1.978v1.813a1.045,1.045,0,0,0,.824.989,4.744,4.744,0,0,1,3.461,2.307.8.8,0,0,0,.989.494l.824-.165a.841.841,0,0,0,.659-.824,4.559,4.559,0,0,1,3.791-4.12,4.644,4.644,0,0,1,5.109,2.307.8.8,0,0,0,.989.494l.824-.165a.841.841,0,0,0,.659-.824,4.336,4.336,0,0,1,2.307-3.461.946.946,0,0,0,.33-1.154L426.96,91a2.871,2.871,0,0,1,.165-2.307,2.552,2.552,0,0,1,1.813-1.319l.989-.165a3.738,3.738,0,0,0,2.637-1.813,3.609,3.609,0,0,0,.494-3.131,4.242,4.242,0,0,0-5.109-2.967l-39.391,8.076-.33-.494A14.535,14.535,0,0,0,372.077,79.8Zm3.461,25.217a10.808,10.808,0,0,1-5.769-1.813,10.615,10.615,0,0,1-3.131-14.668,10.164,10.164,0,0,1,6.757-4.45,10.992,10.992,0,0,1,7.911,1.483,10.164,10.164,0,0,1,4.45,6.757,10.593,10.593,0,0,1-8.241,12.526h0A8.025,8.025,0,0,1,375.538,105.012Zm0-19.448a6.762,6.762,0,0,0-1.813.165,8.893,8.893,0,0,0-5.6,3.791,8.78,8.78,0,0,0-1.319,6.757,8.893,8.893,0,0,0,3.791,5.6,8.781,8.781,0,0,0,6.757,1.319h0a8.893,8.893,0,0,0,5.6-3.791,8.781,8.781,0,0,0,1.318-6.757,8.893,8.893,0,0,0-3.791-5.6A9.115,9.115,0,0,0,375.538,85.564Z" transform="translate(402.462 193.563)" fill="#fff"/><ellipse cx="19.613" cy="12.526" rx="19.613" ry="12.526" transform="translate(731.357 320.826)" fill="#20926b" opacity="0.84"/><ellipse cx="8.076" cy="5.109" rx="8.076" ry="5.109" transform="translate(711.745 340.603)" fill="#20926b" opacity="0.5"/></g></svg>