<svg xmlns="http://www.w3.org/2000/svg" width="47.518" height="47.518" viewBox="0 0 47.518 47.518"><g transform="translate(-1419.837 -449.16)"><ellipse cx="23.759" cy="23.759" rx="23.759" ry="23.759" transform="translate(1419.837 449.16)" fill="#3b5898"/><g transform="translate(1430.396 461.623)"><path d="M14.933,0,9.3,4.533a2.934,2.934,0,0,1-3.625,0L0,0" transform="translate(5.22 7.34)" fill="none" stroke="#fff" stroke-linecap="round" stroke-linejoin="round" stroke-miterlimit="10" stroke-width="1.5"/><path d="M6.452,0H18.9a6.543,6.543,0,0,1,4.726,2.1,6.622,6.622,0,0,1,1.75,4.889V15.6a6.622,6.622,0,0,1-1.75,4.889,6.543,6.543,0,0,1-4.726,2.1H6.452C2.6,22.592,0,19.457,0,15.6V6.988C0,3.135,2.6,0,6.452,0Z" transform="translate(0 0)" fill="none" stroke="#fff" stroke-linecap="round" stroke-linejoin="round" stroke-miterlimit="10" stroke-width="1.5"/></g></g></svg>