<svg xmlns="http://www.w3.org/2000/svg" width="30.357" height="28.88" viewBox="0 0 30.357 28.88"><g transform="translate(1.178 1.204)"><path d="M13.648,26.311A51.342,51.342,0,0,1,4.774,19.4,17.67,17.67,0,0,1,.55,12.667C-1.036,7.737.816,2.094,6,.424a8.81,8.81,0,0,1,7.995,1.347h0A8.823,8.823,0,0,1,21.989.424c5.183,1.67,7.049,7.314,5.463,12.243A17.67,17.67,0,0,1,23.228,19.4a51.342,51.342,0,0,1-8.874,6.91l-.346.216Z" transform="translate(0 0)" fill="none" stroke="#20926b" stroke-linecap="round" stroke-linejoin="round" stroke-miterlimit="10" stroke-width="2.3"/><path d="M0,0A4.1,4.1,0,0,1,2.825,3.569" transform="translate(19.511 5.973)" fill="none" stroke="#20926b" stroke-linecap="round" stroke-linejoin="round" stroke-miterlimit="10" stroke-width="2.3"/></g></svg>