<svg xmlns="http://www.w3.org/2000/svg" width="43.431" height="43.362" viewBox="0 0 43.431 43.362"><g transform="translate(0 0)"><path d="M34.471,2.5H15.81V37.419H34.471a1.2,1.2,0,0,0,1.158-1.244h0V3.745A1.2,1.2,0,0,0,34.472,2.5Z" transform="translate(7.078 1.039)" fill="#fff"/><path d="M25.111,42.425.5,36.852V4.206L25.111.63Z" transform="translate(0.224 0.202)" fill="#b7dbba"/><path d="M11.589,19.743a4.37,4.37,0,0,1-.333-1.1h0a7.717,7.717,0,0,1-.376,1.144L8.013,25.765H3.67l5.212-8.874L4.148,8.74H8.491l2.331,4.893a7.52,7.52,0,0,1,.492,1.448h.072c.087-.318.261-.8.507-1.448L14.5,8.8h4.126l-4.893,8.093,5.443,8.932H14.832Z" transform="translate(1.643 3.833)" fill="#fff"/><path d="M31.244,11.343H22.558V7h8.686ZM24.006,9.9H29.8V8.448H24.006Zm-2.9,1.448H17.52V9.9h2.143V8.448H17.52V7h3.59Zm10.134,5.791H22.558V12.791h8.686Zm-7.239-1.448H29.8V14.239H24.006Zm-2.9,1.448H17.52V15.686h2.143V14.239H17.52V12.791h3.59ZM31.244,28.716H22.558V24.372h8.686Zm-7.239-1.448H29.8V25.82H24.006Zm7.239-4.343H22.558V18.582h8.686Zm-7.239-1.448H29.8V20.029H24.006Zm-2.9,7.239H17.52V27.268h2.143V25.82H17.52V24.372h3.59Zm0-5.791H17.52V21.477h2.143V20.029H17.52V18.582h3.59Z" transform="translate(7.844 3.054)" fill="#e0e9f0"/><path d="M19.413,29.564H15.07a.726.726,0,0,1-.638-.382l-2.948-5.5-2.6,5.414a.719.719,0,0,1-.651.413H3.894a.724.724,0,0,1-.624-1.09l5-8.517L3.739,11.762a.724.724,0,0,1,.633-1.076H8.715a.724.724,0,0,1,.662.43l2.214,4.979,2.486-4.953a.724.724,0,0,1,.647-.4h4.126a.724.724,0,0,1,.627,1.086L14.8,19.9l5.233,8.565a.726.726,0,0,1-.62,1.1ZM15.5,28.117h2.619l-4.785-7.831a.724.724,0,0,1-.009-.741l4.264-7.353H15.169l-2.4,4.785c-.206.553-.372,1.009-.455,1.313a.725.725,0,0,1-.7.533.809.809,0,0,1-.777-.562,6.755,6.755,0,0,0-.444-1.307L8.244,12.134H5.6l4.135,7.422a.725.725,0,0,1-.009.72L5.158,28.059H7.781l2.67-5.568a7.411,7.411,0,0,0,.327-1,.74.74,0,0,1,.733-.552.726.726,0,0,1,.685.608,3.545,3.545,0,0,0,.268.895ZM39.84,38.193H23.916V36.745H39.84a.726.726,0,0,0,.724-.724V4.172a.725.725,0,0,0-.724-.724H23.916V2H39.84a2.174,2.174,0,0,1,2.172,2.172V36.021A2.174,2.174,0,0,1,39.84,38.193Z" transform="translate(1.419 0.816)" fill="#5d9874"/><path d="M26.059,43.417,0,37.468V3.689L26.059.055Zm-24.611-7.1L24.611,41.6V1.72L1.448,4.948Z" transform="translate(0 -0.055)" fill="#5d9874"/></g></svg>