<svg xmlns="http://www.w3.org/2000/svg" width="62.236" height="62.236" viewBox="0 0 62.236 62.236"><path d="M35.118,4A31.118,31.118,0,1,0,66.236,35.118,31.154,31.154,0,0,0,35.118,4Zm0,4.668a26.45,26.45,0,1,1-26.45,26.45A26.415,26.415,0,0,1,35.118,8.668ZM25.783,23.449a3.89,3.89,0,1,0,3.89,3.89A3.89,3.89,0,0,0,25.783,23.449Zm18.671,0a3.89,3.89,0,1,0,3.89,3.89A3.89,3.89,0,0,0,44.453,23.449ZM22.318,41.317a2.334,2.334,0,0,0-1.854,3.8,18.649,18.649,0,0,0,29.307,0A2.334,2.334,0,1,0,46.1,42.232a13.98,13.98,0,0,1-21.971,0,2.334,2.334,0,0,0-1.814-.915Z" transform="translate(-4 -4)" fill="#38435b"/></svg>