<svg xmlns="http://www.w3.org/2000/svg" width="63.163" height="63.163" viewBox="0 0 63.163 63.163"><path d="M0,47.625v5.017c0,4.148,10.105,7.52,22.561,7.52s22.561-3.372,22.561-7.52V47.625c-4.853,3.419-13.725,5.017-22.561,5.017S4.853,51.044,0,47.625ZM37.6,15.041c12.456,0,22.561-3.372,22.561-7.52S50.057,0,37.6,0,15.041,3.372,15.041,7.52,25.146,15.041,37.6,15.041ZM0,35.3v6.063c0,4.148,10.105,7.52,22.561,7.52s22.561-3.372,22.561-7.52V35.3c-4.853,4-13.736,6.063-22.561,6.063S4.853,39.294,0,35.3Zm48.882,1.293c6.733-1.3,11.281-3.725,11.281-6.51V25.064c-2.726,1.927-6.733,3.243-11.281,4.054ZM22.561,18.8C10.105,18.8,0,23.008,0,28.2s10.105,9.4,22.561,9.4S45.122,33.4,45.122,28.2,35.017,18.8,22.561,18.8ZM48.33,25.416c7.05-1.269,11.833-3.76,11.833-6.616V13.783C55.991,16.733,48.823,18.319,41.28,18.7,44.746,20.375,47.3,22.632,48.33,25.416Z" transform="translate(1.5 1.5)" fill="none" stroke="#38435b" stroke-width="3"/></svg>