<svg xmlns="http://www.w3.org/2000/svg" width="23.121" height="18.779" viewBox="0 0 23.121 18.779"><path d="M20.745,4.68c.015.205.015.411.015.616A13.39,13.39,0,0,1,7.277,18.779,13.391,13.391,0,0,1,0,16.651a9.8,9.8,0,0,0,1.144.059,9.49,9.49,0,0,0,5.883-2.025A4.747,4.747,0,0,1,2.6,11.4a5.976,5.976,0,0,0,.895.073,5.012,5.012,0,0,0,1.247-.161,4.739,4.739,0,0,1-3.8-4.651V6.6a4.772,4.772,0,0,0,2.142.6A4.746,4.746,0,0,1,1.614.866a13.47,13.47,0,0,0,9.771,4.959,5.349,5.349,0,0,1-.117-1.086,4.743,4.743,0,0,1,8.2-3.242A9.33,9.33,0,0,0,22.476.352a4.726,4.726,0,0,1-2.083,2.611,9.5,9.5,0,0,0,2.729-.734,10.186,10.186,0,0,1-2.377,2.45Z" fill="#fff"/></svg>