<svg xmlns="http://www.w3.org/2000/svg" width="35.285" height="45.366" viewBox="0 0 35.285 45.366"><g transform="translate(0 0)"><path d="M6.5,46.606V2.5H29.552L40.525,13.472V46.606Z" transform="translate(-5.87 -1.87)" fill="#fff"/><path d="M29.422,3.26l10.6,10.6V46.106H7.26V3.26H29.422M29.943,2H6V47.366H41.285V13.342L29.943,2Z" transform="translate(-6 -2)" fill="#c74343"/><path d="M24.5,13.842V2.5h.369L35.842,13.472v.369Z" transform="translate(-1.187 -1.87)" fill="#ffd9d9"/><path d="M28.371,3.782l9.56,9.56h-9.56V3.782m0-1.782h-1.26V14.6h12.6v-1.26L28.371,2ZM12.044,21.577a11.229,11.229,0,0,1,2.244-.213,4.155,4.155,0,0,1,3,.853,3.185,3.185,0,0,1,.95,2.425A3.688,3.688,0,0,1,17.3,27.3a3.787,3.787,0,0,1-2.687,1.065,3.7,3.7,0,0,1-.426-.016v4.112H12.044Zm2.146,5.029a2.357,2.357,0,0,0,.36.018c1.081,0,1.556-.77,1.556-1.8,0-.967-.393-1.719-1.392-1.719a1.6,1.6,0,0,0-.524.081Zm5.341-5.029a9.868,9.868,0,0,1,2.179-.213,4.255,4.255,0,0,1,3.063.983c.95.852,1.442,2.31,1.442,4.456,0,2.229-.573,3.817-1.54,4.669a4.688,4.688,0,0,1-3.358,1.066,12.7,12.7,0,0,1-1.786-.131Zm2.146,9.175a1.524,1.524,0,0,0,.377.032c1.032,0,1.933-1.016,1.933-4.063,0-2.261-.59-3.638-1.884-3.638a1.218,1.218,0,0,0-.426.049Zm5.9-9.339h4.8v1.868H29.721v2.834h2.49V27.9h-2.49v4.554H27.574Z" transform="translate(-4.427 -2)" fill="#c74343"/></g></svg>