<svg xmlns="http://www.w3.org/2000/svg" width="21.346" height="21.341" viewBox="0 0 21.346 21.341"><path d="M10.675,5.2a5.472,5.472,0,1,0,5.472,5.472A5.463,5.463,0,0,0,10.675,5.2Zm0,9.029a3.557,3.557,0,1,1,3.557-3.557,3.564,3.564,0,0,1-3.557,3.557Zm6.972-9.253A1.276,1.276,0,1,1,16.371,3.7,1.273,1.273,0,0,1,17.647,4.975Zm3.624,1.3A6.316,6.316,0,0,0,19.547,1.8,6.357,6.357,0,0,0,15.076.075c-1.762-.1-7.043-.1-8.805,0A6.348,6.348,0,0,0,1.8,1.794,6.337,6.337,0,0,0,.075,6.266c-.1,1.762-.1,7.043,0,8.805A6.316,6.316,0,0,0,1.8,19.543a6.365,6.365,0,0,0,4.472,1.724c1.762.1,7.043.1,8.805,0a6.316,6.316,0,0,0,4.472-1.724,6.357,6.357,0,0,0,1.724-4.472c.1-1.762.1-7.038,0-8.8ZM18.995,16.961a3.6,3.6,0,0,1-2.029,2.029c-1.4.557-4.738.429-6.291.429s-4.891.124-6.291-.429a3.6,3.6,0,0,1-2.029-2.029c-.557-1.4-.429-4.738-.429-6.291S1.8,5.78,2.356,4.38A3.6,3.6,0,0,1,4.385,2.351c1.4-.557,4.738-.429,6.291-.429s4.891-.124,6.291.429A3.6,3.6,0,0,1,18.995,4.38c.557,1.4.429,4.738.429,6.291S19.552,15.561,18.995,16.961Z" fill="#fff"/></svg>