<svg xmlns="http://www.w3.org/2000/svg" width="58.557" height="58.557" viewBox="0 0 58.557 58.557"><path d="M42.038,3l2.44,17.079,5.48-4.57A24.386,24.386,0,1,1,7.88,32.278a2.44,2.44,0,1,0-4.88,0A29.279,29.279,0,1,0,53.708,12.388L59.117,7.88Zm-12.866.167-.238.033L27.141,4.458l-.062,2.187L28.8,8l.858.024.243-.033,1.787-1.258.062-2.187L30.034,3.191ZM19.6,6l-.81.291-.21.119-1.215,1.82.734,2.059,2.087.648.81-.286.214-.124,1.21-1.82L21.685,6.65Zm-6.476,6.29-2.183.129-.658.558-.152.186-.5,2.13,1.411,1.673,2.183-.133.658-.553.152-.186.5-2.13Zm16.717,5.347v3.95c-3.379.751-5.5,3.034-5.5,6.238,0,3.184,1.869,5.166,5.676,5.961l2.721.581c2.562.551,3.6,1.318,3.6,2.65,0,1.579-1.608,2.678-3.879,2.678-2.462,0-4.172-1.085-4.374-2.778H23.863c.132,3.223,2.387,5.426,5.976,6.1v3.9h4.88V43.01c3.738-.71,5.976-3.049,5.976-6.538,0-3.24-1.805-5.054-6-5.938L32.169,30c-2.447-.52-3.441-1.261-3.441-2.549,0-1.593,1.445-2.607,3.631-2.607,2.113,0,3.648,1.1,3.85,2.75h4.113c-.107-3.033-2.31-5.277-5.6-6.014V17.639ZM7.184,20.646l-2,.9-.415.753-.081.229.3,2.168L6.9,25.75l2-.9.415-.753.081-.229L9.1,21.7Z" transform="translate(-3 -3)" fill="#38435b"/></svg>