<svg xmlns="http://www.w3.org/2000/svg" width="92.727" height="92.727" viewBox="0 0 92.727 92.727"><path d="M37.117,4A23.232,23.232,0,0,0,13.935,27.182c0,8.107,4.451,14.922,10.789,19.068A33.1,33.1,0,0,0,4,76.857h6.623c0-8.985,4.72-16.513,11.526-21.3C25.8,60.15,30.826,63.61,37.117,63.61A19.726,19.726,0,0,0,45.112,61.9a26.626,26.626,0,1,0,9.54-13.033,40.685,40.685,0,0,0-5.317-2.49C55.773,42.246,60.3,35.366,60.3,27.182A23.232,23.232,0,0,0,37.117,4Zm0,6.623A16.558,16.558,0,1,1,20.558,27.182,16.507,16.507,0,0,1,37.117,10.623Zm0,39.74a26.026,26.026,0,0,1,9.424,1.927c-2.417,2.669-5.516,4.7-9.424,4.7s-7.032-2.037-9.45-4.722A26.307,26.307,0,0,1,37.117,50.364Zm33.117,0a19.87,19.87,0,1,1-19.87,19.87A19.82,19.82,0,0,1,70.234,50.364ZM81.139,61.269,70.234,72.174,62.64,64.581l-4.683,4.683L70.234,81.54,85.822,65.952Z" transform="translate(-4 -4)" fill="#20926b"/></svg>