<svg xmlns="http://www.w3.org/2000/svg" width="54.985" height="61.475" viewBox="0 0 54.985 61.475"><path d="M25.335.984A1.3,1.3,0,0,0,24.058,2.3v7.785a1.3,1.3,0,1,0,2.6,0V2.3A1.3,1.3,0,0,0,25.335.984Zm-11.672,3.9a1.294,1.294,0,0,0-.9,2.225l5.19,5.19a1.3,1.3,0,1,0,1.835-1.835l-5.19-5.19A1.282,1.282,0,0,0,13.662,4.887Zm23.345,0a1.26,1.26,0,0,0-.892.39l-5.19,5.19A1.3,1.3,0,1,0,32.76,12.3l5.19-5.19a1.294,1.294,0,0,0,.289-1.434A1.28,1.28,0,0,0,37.007,4.887ZM50.231,6.2a4.957,4.957,0,0,0-3.512,1.444L23.054,31.314c-.39-.715-.583-1.095-1.308-2.337a30.865,30.865,0,0,0-3.771-5.5,15.884,15.884,0,0,0-6.9-3.837,11.709,11.709,0,0,0-3.462-.461,4.141,4.141,0,0,0-2.9,1.054L2.38,22.555a1.3,1.3,0,0,0,0,1.84L9.5,31.516l5.54,16.609a1.315,1.315,0,0,0,.314.507L25.543,58.82a10.762,10.762,0,0,0,15.2,0l2.245-2.245h-.537a1.3,1.3,0,0,0,.917-.38L55.041,44.517a4.993,4.993,0,0,0,0-7.025,4.824,4.824,0,0,0-2.767-1.3A4.976,4.976,0,0,0,51.148,31a4.824,4.824,0,0,0-2.767-1.3,4.976,4.976,0,0,0-1.125-5.185,4.823,4.823,0,0,0-2.169-1.186l8.657-8.657A4.957,4.957,0,0,0,50.231,6.2Zm0,2.575a2.382,2.382,0,0,1,1.678,4.06L40.231,24.517a1.3,1.3,0,0,0,1.835,1.835,2.372,2.372,0,1,1,3.355,3.355l-1.3,1.3a1.3,1.3,0,0,0,1.835,1.835,2.372,2.372,0,0,1,3.355,3.355l-1.3,1.3a1.3,1.3,0,0,0,1.835,1.835,2.374,2.374,0,1,1,3.355,3.36L41.528,54.359,38.9,56.985a8.131,8.131,0,0,1-11.525,0l-9.97-9.975L11.868,30.4a1.4,1.4,0,0,0-.314-.507L5.132,23.473l1.409-1.409a2.2,2.2,0,0,1,1.171-.294,9.418,9.418,0,0,1,2.681.375,13.72,13.72,0,0,1,5.753,3.168,35.623,35.623,0,0,1,3.36,4.972c1.171,2,2.108,3.766,2.108,3.766a1.3,1.3,0,0,0,2.063.309L48.553,9.484A2.362,2.362,0,0,1,50.231,8.78Z" transform="translate(-1.75 -0.734)" fill="#38435b" stroke="#38435b" stroke-width="0.5"/></svg>