<svg xmlns="http://www.w3.org/2000/svg" width="23.13" height="23.13" viewBox="0 0 23.13 23.13"><g transform="translate(0 0)"><path d="M0,11.565A11.565,11.565,0,1,1,11.565,23.13,11.578,11.578,0,0,1,0,11.565Zm1.735,0a9.83,9.83,0,1,0,9.83-9.83A9.842,9.842,0,0,0,1.735,11.565Zm8.957,4.39a.868.868,0,0,1,.75-.86l.129-.008a.868.868,0,0,1,.118,1.728l-.129.007A.867.867,0,0,1,10.692,15.955ZM10.7,12.4l-.008-.119V7.175a.867.867,0,0,1,1.727-.118l.008.118v5.111A.867.867,0,0,1,10.7,12.4Z" transform="translate(0 0)" fill="#38435b"/></g></svg>