<svg xmlns="http://www.w3.org/2000/svg" width="204" height="204" viewBox="0 0 204 204"><g transform="translate(-0.371 -0.222)"><rect width="204" height="204" transform="translate(0.371 0.222)" fill="none"/><path d="M54.595,13.631a89.6,89.6,0,1,1-51.27,58.3l16.453,4.615A72.533,72.533,0,1,0,66.205,27.468L76.379,39.593A4.272,4.272,0,0,1,73.348,46.6L31.765,48.96a4.272,4.272,0,0,1-4.4-5.256L37.01,3.281a4.272,4.272,0,0,1,7.428-1.755Z" transform="translate(8.231 10.411)" fill="#20926b" opacity="0.3"/><path d="M51.264,68.352H8.545A8.554,8.554,0,0,1,0,59.809V34.176a8.554,8.554,0,0,1,8.545-8.543V21.36a21.36,21.36,0,1,1,42.719,0v4.273a8.555,8.555,0,0,1,8.545,8.543V59.809A8.554,8.554,0,0,1,51.264,68.352ZM29.9,8.545A12.83,12.83,0,0,0,17.088,21.36v4.273H42.721V21.36A12.83,12.83,0,0,0,29.9,8.545Z" transform="translate(72.311 68.171)" fill="#20926b"/></g></svg>