<svg xmlns="http://www.w3.org/2000/svg" width="26.885" height="24.092" viewBox="0 0 26.885 24.092"><g transform="translate(0.75 0.75)"><path d="M14.933,0,9.3,4.533a2.934,2.934,0,0,1-3.625,0L0,0" transform="translate(5.22 7.34)" fill="none" stroke="#fff" stroke-linecap="round" stroke-linejoin="round" stroke-miterlimit="10" stroke-width="1.5"/><path d="M6.452,0H18.9a6.543,6.543,0,0,1,4.726,2.1,6.622,6.622,0,0,1,1.75,4.889V15.6a6.622,6.622,0,0,1-1.75,4.889,6.543,6.543,0,0,1-4.726,2.1H6.452C2.6,22.592,0,19.457,0,15.6V6.988C0,3.135,2.6,0,6.452,0Z" transform="translate(0 0)" fill="none" stroke="#fff" stroke-linecap="round" stroke-linejoin="round" stroke-miterlimit="10" stroke-width="1.5"/></g></svg>