<svg xmlns="http://www.w3.org/2000/svg" width="16.089" height="23.503" viewBox="0 0 16.089 23.503"><g transform="translate(-17.4 -2.5)"><g transform="translate(17.4 2.5)"><path d="M30.844,2.5H20.069A2.674,2.674,0,0,0,17.4,5.169V18.317a2.674,2.674,0,0,0,2.669,2.669h.692c0,.1-.025.2-.025.3a4.72,4.72,0,0,0,9.441,0,1.2,1.2,0,0,0-.025-.3h.667a2.674,2.674,0,0,0,2.669-2.669V5.169A2.653,2.653,0,0,0,30.844,2.5ZM25.457,24.57a3.312,3.312,0,1,1,3.312-3.312A3.312,3.312,0,0,1,25.457,24.57Zm6.623-6.277a1.239,1.239,0,0,1-1.236,1.236h-.989a4.724,4.724,0,0,0-8.8.025h-.989a1.261,1.261,0,0,1-1.26-1.236V5.169a1.245,1.245,0,0,1,1.26-1.236H30.82a1.239,1.239,0,0,1,1.236,1.236V18.292Z" transform="translate(-17.4 -2.5)" fill="#38435b"/><path d="M40.13,17.6H32.617a.717.717,0,0,0,0,1.433H40.13a.717.717,0,1,0,0-1.433Z" transform="translate(-28.316 -13.868)" fill="#38435b"/><path d="M40.13,32.3H32.617a.717.717,0,1,0,0,1.433H40.13a.717.717,0,0,0,.717-.717A.734.734,0,0,0,40.13,32.3Z" transform="translate(-28.316 -24.935)" fill="#38435b"/><path d="M40.13,47H32.617a.717.717,0,1,0,0,1.433H40.13a.717.717,0,0,0,.717-.717A.734.734,0,0,0,40.13,47Z" transform="translate(-28.316 -36.002)" fill="#38435b"/><path d="M44.348,72.579l-1.285,1.285-.4-.4a.7.7,0,1,0-.989.989l.89.89a.735.735,0,0,0,.494.2.69.69,0,0,0,.494-.2l1.779-1.779a.7.7,0,1,0-.989-.989Z" transform="translate(-35.525 -55.106)" fill="#38435b"/></g></g></svg>