<svg xmlns="http://www.w3.org/2000/svg" width="23.631" height="23.631" viewBox="0 0 23.631 23.631"><g transform="translate(0.25 0.25)"><path d="M409.131,12.565A11.565,11.565,0,1,1,397.565,1,11.565,11.565,0,0,1,409.131,12.565Zm-1,0a10.57,10.57,0,1,0-10.57,10.569A10.569,10.569,0,0,0,408.135,12.565Zm-10.554,6.609a1.1,1.1,0,1,1,1.1-1.1A1.1,1.1,0,0,1,397.581,19.174Zm3.3-9.913a3.305,3.305,0,0,1-2.754,3.259v2.766h-1.1V11.464h.551a2.2,2.2,0,1,0-2.2-2.2v.551h-1.1V9.261a3.3,3.3,0,1,1,6.609,0Z" transform="translate(-386 -1)" fill="#38435b" stroke="#38435b" stroke-width="0.5"/></g></svg>