<svg xmlns="http://www.w3.org/2000/svg" width="28.692" height="33.213" viewBox="0 0 28.692 33.213"><g transform="translate(41.981 -110.032)"><g transform="translate(-41.539 110.282)"><path d="M32.069,15.5l-3.341-3.319a2.907,2.907,0,0,0-.372-3.668h0a2.9,2.9,0,0,0-3.667-.4L21.354,4.777a2.331,2.331,0,0,0-3.591,2.936L10.587,19.67,7.339,22.914a1.744,1.744,0,0,0,0,2.471h0l-.413.413a2.912,2.912,0,1,0,4.12,4.116l.413-.413h0a1.732,1.732,0,0,0,2.47,0h0l5.154,5.156a2.622,2.622,0,1,0,3.707-3.709l-5.038-5.04,11.383-6.819A2.325,2.325,0,0,0,32.069,15.5ZM27.531,9.311h0a1.763,1.763,0,0,1,.343,1.994L25.55,8.98A1.783,1.783,0,0,1,27.531,9.311ZM10.221,29.076a1.744,1.744,0,1,1-2.446-2.453l.413-.413,2.475,2.476Zm2.905-.413a.581.581,0,0,1-.825,0l-4.137-4.1a.581.581,0,0,1,0-.825l2.905-2.907L16.02,25.78Zm8.861,3.087a1.454,1.454,0,0,1,.43,1.035,1.43,1.43,0,0,1-.43,1.029,1.458,1.458,0,0,1-2.063,0l-5.177-5.127,2.063-2.064ZM16.909,25.07l-5.131-5.133L18.583,8.6l9.663,9.667ZM31.25,17.99a1.162,1.162,0,0,1-1.656,0L18.879,7.253A1.179,1.179,0,1,1,20.558,5.6L31.25,16.316a1.163,1.163,0,0,1,0,1.674Z" transform="translate(-6.075 -2.711)" fill="#38435b" stroke="#38435b" stroke-width="0.5"/><path d="M46.22,8.913a.66.66,0,0,0,.462-.191l1.874-1.874a.66.66,0,0,0-.93-.917L45.751,7.791a.657.657,0,0,0,.469,1.122Z" transform="translate(-23.129 -3.291)" fill="#38435b" stroke="#38435b" stroke-width="0.5"/><path d="M40.66,5.959a.66.66,0,0,0,.66-.66V2.66a.66.66,0,1,0-1.32,0V5.3A.66.66,0,0,0,40.66,5.959Z" transform="translate(-20.291 -2)" fill="#38435b" stroke="#38435b" stroke-width="0.5"/><path d="M51.3,14H48.66a.66.66,0,1,0,0,1.32H51.3a.66.66,0,1,0,0-1.32Z" transform="translate(-23.959 -7.023)" fill="#38435b" stroke="#38435b" stroke-width="0.5"/></g></g></svg>