<svg xmlns="http://www.w3.org/2000/svg" width="15" height="19" viewBox="0 0 15 19"><g transform="translate(0.338 0.423)"><path d="M6.258,18.966c-.113,0-.193,0-.267,0l-.135-.005a2.05,2.05,0,0,1-.378-.044,14.258,14.258,0,0,1-2.187-.321l-.24-.051A3.712,3.712,0,0,1,.263,16.734,2.82,2.82,0,0,1,0,15.545a2.763,2.763,0,0,1,.269-1.2,4.058,4.058,0,0,1,3-1.85,15.5,15.5,0,0,1,2.193-.315c.673-.06,1.357-.09,2.034-.09s1.361.03,2.034.09l.432.037a15.943,15.943,0,0,1,1.756.277c1.619.338,2.577.93,3.014,1.864a2.8,2.8,0,0,1,0,2.379c-.434.929-1.417,1.536-3,1.852l-.439.092a14.545,14.545,0,0,1-1.762.233C8.86,18.971,8.179,19,7.508,19,7.089,19,6.668,18.989,6.258,18.966Zm-.688-5.415a14.376,14.376,0,0,0-2.021.29,3,3,0,0,0-2.067,1.11,1.361,1.361,0,0,0-.131.593,1.4,1.4,0,0,0,.13.6c.239.5.961.883,2.088,1.106l.331.071a14.355,14.355,0,0,0,1.757.237,1.7,1.7,0,0,0,.269.032l.369.006c.4.022.812.033,1.215.033.635,0,1.281-.027,1.919-.083a13.28,13.28,0,0,0,2.027-.3l.211-.045a2.589,2.589,0,0,0,1.849-1.053,1.406,1.406,0,0,0,0-1.2c-.229-.49-.945-.874-2.07-1.109a14.419,14.419,0,0,0-2.017-.288l-.012,0c-.633-.056-1.276-.085-1.91-.085S6.213,13.494,5.571,13.551ZM2.523,5.068A5.03,5.03,0,0,1,7.5,0a5.03,5.03,0,0,1,4.98,5.068A5.03,5.03,0,0,1,7.5,10.137,5.03,5.03,0,0,1,2.523,5.068Zm1.352,0a3.629,3.629,0,1,0,7.257,0,3.629,3.629,0,1,0-7.257,0Z" transform="translate(-0.338 -0.423)" fill="#38435b"/></g></svg>