<svg xmlns="http://www.w3.org/2000/svg" width="30.686" height="32.559" viewBox="0 0 30.686 32.559"><g transform="translate(0.573 0.372)"><path d="M27.593,8.415l-.98-1.7a3.011,3.011,0,0,0-4.107-1.109h0A3,3,0,0,1,18.4,4.539,2.882,2.882,0,0,1,18,3.1h0A3.011,3.011,0,0,0,14.985,0H13.011a3,3,0,0,0-3,3.011h0A3.011,3.011,0,0,1,7,5.98a2.882,2.882,0,0,1-1.441-.4h0A3.011,3.011,0,0,0,1.455,6.686L.4,8.415a3.011,3.011,0,0,0,1.1,4.107h0A3.011,3.011,0,0,1,3,15.13,3.011,3.011,0,0,1,1.5,17.738h0A3,3,0,0,0,.4,21.83h0L1.4,23.544A3.011,3.011,0,0,0,5.5,24.712h0a2.983,2.983,0,0,1,4.092,1.1,2.882,2.882,0,0,1,.4,1.441h0a3.011,3.011,0,0,0,3.011,3.011h1.974a3.011,3.011,0,0,0,3.011-3h0a3,3,0,0,1,3.011-3.011,3.069,3.069,0,0,1,1.441.4h0a3.011,3.011,0,0,0,4.107-1.1h0l1.037-1.729a3,3,0,0,0-1.1-4.107h0a3,3,0,0,1-1.1-4.107,2.954,2.954,0,0,1,1.1-1.1h0a3.011,3.011,0,0,0,1.1-4.092h0Z" transform="translate(0.779 0.778)" fill="none" stroke="#38435b" stroke-linecap="round" stroke-linejoin="round" stroke-miterlimit="10" stroke-width="2.3"/><circle cx="4.15" cy="4.15" r="4.15" transform="translate(10.634 11.758)" fill="none" stroke="#38435b" stroke-linecap="round" stroke-linejoin="round" stroke-miterlimit="10" stroke-width="2.3"/></g></svg>