<svg xmlns="http://www.w3.org/2000/svg" width="19.5" height="23.67" viewBox="0 0 19.5 23.67"><g transform="translate(0 0.004)"><path d="M17.145,2.786A1.277,1.277,0,0,1,18,3.991v7.945a9.128,9.128,0,0,1-2.232,5.983,9.117,9.117,0,0,1-2.587,1.992L9.007,22.166,4.826,19.91a9.111,9.111,0,0,1-2.59-1.992A9.13,9.13,0,0,1,0,11.932V3.991A1.277,1.277,0,0,1,.855,2.786L8.577.072a1.279,1.279,0,0,1,.847,0Z" transform="translate(0.75 0.749)" fill="none" stroke="#38435b" stroke-linecap="round" stroke-linejoin="round" stroke-miterlimit="10" stroke-width="1.5"/><path d="M0,2.352,2.219,4.573,6.792,0" transform="translate(6.701 9.153)" fill="none" stroke="#38435b" stroke-linecap="round" stroke-linejoin="round" stroke-miterlimit="10" stroke-width="1.5"/></g></svg>