<svg xmlns="http://www.w3.org/2000/svg" width="43.154" height="56.59" viewBox="0 0 43.154 56.59"><g transform="translate(0.5 0.629)"><g transform="translate(0 0)"><path d="M100.929,194.887v-22.7a7.044,7.044,0,0,0-7.029-7.029h-4.55a1.392,1.392,0,1,0,0,2.785H93.9a4.266,4.266,0,0,1,4.256,4.256v22.707a4.266,4.266,0,0,1-4.256,4.256H65.8a4.266,4.266,0,0,1-4.256-4.256V172.191a4.266,4.266,0,0,1,4.256-4.256h4.55a1.392,1.392,0,1,0,0-2.785H65.8a7.044,7.044,0,0,0-7.029,7.029v22.707a7.044,7.044,0,0,0,7.029,7.029H93.9A7.029,7.029,0,0,0,100.929,194.887Z" transform="translate(-58.775 -146.456)" fill="#38435b" stroke="#38435b" stroke-width="1"/><path d="M149.3,11.835a1.38,1.38,0,0,0,1.958,0L158.394,4.7V30.716a1.392,1.392,0,1,0,2.785,0v-26l7.131,7.131a1.389,1.389,0,1,0,1.97-1.958l-9.5-9.5a1.423,1.423,0,0,0-1.958,0l-9.5,9.5A1.347,1.347,0,0,0,149.3,11.835Z" transform="translate(-138.698 0)" fill="#38435b" stroke="#38435b" stroke-width="1"/></g></g></svg>