<svg xmlns="http://www.w3.org/2000/svg" width="30.3" height="28.154" viewBox="0 0 30.3 28.154"><g transform="translate(1.15 1.15)"><path d="M9.861,7.875H3.939A3.937,3.937,0,1,1,3.939,0H9.861" transform="translate(18.139 8.797)" fill="none" stroke="#38435b" stroke-linecap="round" stroke-linejoin="round" stroke-miterlimit="10" stroke-width="2.3"/><path d="M.756.456H.3" transform="translate(21.992 12.189)" fill="none" stroke="#38435b" stroke-linecap="round" stroke-linejoin="round" stroke-miterlimit="10" stroke-width="2.3"/><path d="M7.677,0H20.322A7.677,7.677,0,0,1,28,7.677v10.5a7.677,7.677,0,0,1-7.677,7.677H7.677A7.677,7.677,0,0,1,0,18.177V7.677A7.677,7.677,0,0,1,7.677,0Z" transform="translate(0 0)" fill="none" stroke="#38435b" stroke-linecap="round" stroke-linejoin="round" stroke-miterlimit="10" stroke-width="2.3"/><path d="M0,.456H7.9" transform="translate(6.636 6.184)" fill="none" stroke="#38435b" stroke-linecap="round" stroke-linejoin="round" stroke-miterlimit="10" stroke-width="2.3"/></g></svg>