<svg xmlns="http://www.w3.org/2000/svg" width="47.518" height="47.518" viewBox="0 0 47.518 47.518"><g transform="translate(0 0)"><path d="M0,47.518,4.087,35.259A23.347,23.347,0,1,1,13.3,44.017Z" transform="translate(0 0)" fill="#2cb742"/><path d="M41.234,32.927C40.156,30.89,36.18,28.56,36.18,28.56c-.9-.513-1.985-.57-2.5.344a20.594,20.594,0,0,1-1.621,1.772,3.02,3.02,0,0,1-4.295-.426l-3.262-3.262-3.262-3.262a3.02,3.02,0,0,1-.426-4.295,20.593,20.593,0,0,1,1.772-1.621c.914-.514.857-1.6.344-2.5,0,0-2.33-3.976-4.368-5.054a2.233,2.233,0,0,0-2.624.395l-1.44,1.44c-4.569,4.569-2.319,9.727,2.25,14.3l4.176,4.176L25.1,34.743c4.569,4.569,9.727,6.819,14.3,2.25l1.44-1.44A2.235,2.235,0,0,0,41.234,32.927Z" transform="translate(-2.169 -1.807)" fill="#fff"/></g></svg>