<svg xmlns="http://www.w3.org/2000/svg" width="61.398" height="75.015" viewBox="0 0 61.398 75.015"><path d="M86.483,259.548c-6.372,11.006-2.317,27.8,4.634,37.942,3.476,4.924,6.951,9.558,11.875,9.558h.29a13.847,13.847,0,0,0,5.5-1.448,14.716,14.716,0,0,1,12.744,0,12.575,12.575,0,0,0,6.082,1.448c5.5,0,8.689-4.924,11.875-9.268a41.743,41.743,0,0,0,5.213-10.716h0a1.064,1.064,0,0,0-.29-.869h0a15.925,15.925,0,0,1-9.558-14.482c0-8.4,6.372-12.744,7.53-13.613h0l.29-.29v-.579a17.612,17.612,0,0,0-13.9-7.53h-1.159a20.279,20.279,0,0,0-8.689,2.317,18.1,18.1,0,0,1-4.055,1.159,16.267,16.267,0,0,1-4.344-1.159c-2.317-.869-4.924-2.027-7.53-2.027h-.29A19.116,19.116,0,0,0,86.483,259.548Z" transform="translate(-83.302 -232.032)" fill="#20926b"/><path d="M109.109,243.6a18.6,18.6,0,0,0-11.3,5.793C95.5,252,93.18,256.633,93.759,261.268a.623.623,0,0,0,.579.579h.869a14.488,14.488,0,0,0,10.716-5.5,17.687,17.687,0,0,0,4.055-12.165C109.689,243.89,109.4,243.6,109.109,243.6Z" transform="translate(-63.642 -243.6)" fill="#20926b"/></svg>